<?xml version="1.0" encoding="iso-8859-1"?>
<!-- Generator: Adobe Illustrator 19.0.0, SVG Export Plug-In . SVG Version: 6.00 Build 0)  -->
<svg version="1.1" id="Layer_1" xmlns="http://www.w3.org/2000/svg" xmlns:xlink="http://www.w3.org/1999/xlink" x="0px" y="0px"
	 viewBox="0 0 512 512" style="enable-background:new 0 0 512 512;" xml:space="preserve">
<g>
	<path style="fill:#CBD4D8;" d="M425.22,512H182.237c-24.298,0-43.39-19.092-43.39-43.39v-43.39c0-5.207,3.471-8.678,8.678-8.678
		s8.678,3.471,8.678,8.678v43.39c0,14.753,11.281,26.034,26.034,26.034H425.22c14.753,0,26.034-11.281,26.034-26.034V251.661
		c0-5.207,3.471-8.678,8.678-8.678c5.207,0,8.678,3.471,8.678,8.678V468.61C468.61,492.908,449.519,512,425.22,512"/>
	<path style="fill:#CBD4D8;" d="M373.153,477.288H251.661c-14.753,0-26.034-11.281-26.034-26.034V425.22
		c0-5.207,3.471-8.678,8.678-8.678s8.678,3.471,8.678,8.678v26.034c0,5.207,3.471,8.678,8.678,8.678h121.492
		c5.207,0,8.678-3.471,8.678-8.678V251.661c0-5.207,3.471-8.678,8.678-8.678c5.207,0,8.678,3.471,8.678,8.678v199.593
		C399.186,466.007,387.905,477.288,373.153,477.288"/>
	<path style="fill:#CBD4D8;" d="M390.508,182.237c-5.207,0-8.678-3.471-8.678-8.678v-26.034c0-5.207,3.471-8.678,8.678-8.678
		c5.207,0,8.678,3.471,8.678,8.678v26.034C399.186,178.766,395.715,182.237,390.508,182.237"/>
	<path style="fill:#CBD4D8;" d="M459.932,182.237c-5.207,0-8.678-3.471-8.678-8.678v-26.034c0-5.207,3.471-8.678,8.678-8.678
		c5.207,0,8.678,3.471,8.678,8.678v26.034C468.61,178.766,465.139,182.237,459.932,182.237"/>
</g>
<path style="fill:#F4BA48;" d="M255.132,425.22H126.698c-51.2,0-91.986-39.051-91.986-86.78
	c21.695-111.078,23.431-145.79,5.207-252.529l-5.207-25.166l0,0C34.712,26.902,63.349,0,98.929,0h183.973
	c35.58,0,64.217,26.902,64.217,60.746l-5.207,25.166c-18.224,111.078-16.488,145.79,5.207,252.529
	C347.119,386.169,306.332,425.22,255.132,425.22"/>
<path style="fill:#75B93F;" d="M286.373,173.559H95.458c-9.546,0-17.356-7.81-17.356-17.356V60.746
	c0-9.546,7.81-17.356,17.356-17.356h190.915c9.546,0,17.356,7.81,17.356,17.356v95.458
	C303.729,165.749,295.919,173.559,286.373,173.559"/>
<path style="fill:#2C3C42;" d="M190.915,381.831c-47.729,0-86.78-39.051-86.78-86.78s39.051-86.78,86.78-86.78
	s86.78,39.051,86.78,86.78S238.644,381.831,190.915,381.831"/>
<g>
	<path style="fill:#E15649;" d="M407.864,251.661h-34.712v-60.746c0-9.546,7.81-17.356,17.356-17.356s17.356,7.81,17.356,17.356
		V251.661z"/>
	<path style="fill:#E15649;" d="M477.288,251.661h-34.712v-60.746c0-9.546,7.81-17.356,17.356-17.356
		c9.546,0,17.356,7.81,17.356,17.356V251.661z"/>
</g>
<g>
	<path style="fill:#528723;" d="M147.525,147.525h-34.712c-5.207,0-8.678-3.471-8.678-8.678v-8.678
		c0-14.753,11.281-26.034,26.034-26.034c5.207,0,8.678-3.471,8.678-8.678c0-5.207-3.471-8.678-8.678-8.678s-8.678,3.471-8.678,8.678
		c0,5.207-3.471,8.678-8.678,8.678c-5.207,0-8.678-3.471-8.678-8.678c0-14.753,11.281-26.034,26.034-26.034
		s26.034,11.281,26.034,26.034s-11.281,26.034-26.034,26.034c-5.207,0-8.678,3.471-8.678,8.678h26.034
		c5.207,0,8.678,3.471,8.678,8.678S152.732,147.525,147.525,147.525"/>
	<path style="fill:#528723;" d="M208.271,147.525h-34.712c-5.207,0-8.678-3.471-8.678-8.678v-8.678
		c0-14.753,11.281-26.034,26.034-26.034c5.207,0,8.678-3.471,8.678-8.678c0-5.207-3.471-8.678-8.678-8.678s-8.678,3.471-8.678,8.678
		c0,5.207-3.471,8.678-8.678,8.678c-5.207,0-8.678-3.471-8.678-8.678c0-14.753,11.281-26.034,26.034-26.034
		s26.034,11.281,26.034,26.034s-11.281,26.034-26.034,26.034c-5.207,0-8.678,3.471-8.678,8.678h26.034
		c5.207,0,8.678,3.471,8.678,8.678S213.478,147.525,208.271,147.525"/>
	<path style="fill:#528723;" d="M244.719,86.78c-0.868,0-1.736,0.868-1.736,1.736v40.786c0,0.868,0.868,1.736,1.736,1.736h14.753
		c0.868,0,1.736-0.868,1.736-1.736V88.515c0-0.868-0.868-1.736-1.736-1.736H244.719z M258.603,147.525h-14.753
		c-9.546,0-18.224-8.678-18.224-19.092V87.647c0-9.546,8.678-18.224,19.092-18.224h14.753c9.546,0,18.224,8.678,18.224,19.092
		v40.786C277.695,138.847,269.017,147.525,258.603,147.525L258.603,147.525z"/>
</g>
<path style="fill:#51656B;" d="M124.095,240.38l122.359,122.359c4.339-3.471,8.678-7.81,12.149-12.149L136.244,228.23
	C131.905,231.702,127.566,236.041,124.095,240.38"/>
<g>
</g>
<g>
</g>
<g>
</g>
<g>
</g>
<g>
</g>
<g>
</g>
<g>
</g>
<g>
</g>
<g>
</g>
<g>
</g>
<g>
</g>
<g>
</g>
<g>
</g>
<g>
</g>
<g>
</g>
</svg>
