<?xml version="1.0" encoding="iso-8859-1"?>
<!-- Generator: Adobe Illustrator 19.0.0, SVG Export Plug-In . SVG Version: 6.00 Build 0)  -->
<svg version="1.1" id="Capa_1" xmlns="http://www.w3.org/2000/svg" xmlns:xlink="http://www.w3.org/1999/xlink" x="0px" y="0px"
	 viewBox="0 0 512 512" style="enable-background:new 0 0 512 512;" xml:space="preserve">
<rect x="165.5" y="45" style="fill:#A8D3D8;" width="90" height="120"/>
<rect x="210.5" y="45" style="fill:#8EBAC5;" width="45" height="120"/>
<path style="fill:#25D9F8;" d="M491.999,427.5L436.5,329.7l-55.499,97.8C378,434.7,376.5,443.2,376.5,451c0,32.999,27.001,61,60,61
	s60-28.001,60-61C496.5,443.2,495,434.7,491.999,427.5z"/>
<path style="fill:#00C0F1;" d="M496.5,451c0,32.999-27.001,61-60,61V329.7l55.499,97.8C495,434.7,496.5,443.2,496.5,451z"/>
<path style="fill:#DEECF1;" d="M421.5,180H296.6c-19.501-27.9-51.599-45-86.1-45s-66.599,17.1-86.1,45H15.5v120h108.9
	c19.501,27.9,51.599,45,86.1,45s66.599-17.1,86.1-45h79.9v60h120V255C496.5,213.6,462.9,180,421.5,180z"/>
<rect x="120.5" y="30" style="fill:#00ABE9;" width="180" height="30"/>
<rect x="210.5" y="30" style="fill:#0095FF;" width="90" height="30"/>
<path style="fill:#C6E2E7;" d="M496.5,255v105h-120v-60h-79.9c-19.501,27.9-51.599,45-86.1,45V135c34.501,0,66.599,17.1,86.1,45
	h124.9C462.9,180,496.5,213.6,496.5,255z"/>
<path style="fill:#00ABE9;" d="M330.5,90c-24.814,0-45-20.186-45-45s20.186-45,45-45s45,20.186,45,45S355.314,90,330.5,90z"/>
<path style="fill:#00C0F1;" d="M90.5,90c-24.814,0-45-20.186-45-45s20.186-45,45-45s45,20.186,45,45S115.314,90,90.5,90z"/>
<g>
</g>
<g>
</g>
<g>
</g>
<g>
</g>
<g>
</g>
<g>
</g>
<g>
</g>
<g>
</g>
<g>
</g>
<g>
</g>
<g>
</g>
<g>
</g>
<g>
</g>
<g>
</g>
<g>
</g>
</svg>
