<?xml version="1.0" encoding="iso-8859-1"?>
<!-- Generator: Adobe Illustrator 19.0.0, SVG Export Plug-In . SVG Version: 6.00 Build 0)  -->
<svg version="1.1" id="Capa_1" xmlns="http://www.w3.org/2000/svg" xmlns:xlink="http://www.w3.org/1999/xlink" x="0px" y="0px"
	 viewBox="0 0 512 512" style="enable-background:new 0 0 512 512;" xml:space="preserve">
<path style="fill:#FDBF00;" d="M181,15v61c0,8.399-6.599,15-15,15s-15-6.601-15-15V15c0-8.401,6.599-15,15-15S181,6.599,181,15z"/>
<path style="fill:#FF9F00;" d="M181,15v61c0,8.399-6.599,15-15,15V0C174.401,0,181,6.599,181,15z"/>
<path style="fill:#68544F;" d="M437,181c-8.401,0-15,6.599-15,15v166c0,31.8-12.599,60.899-32.999,82.2
	c1.8-6.9,2.999-14.4,2.999-22.2c0-49.501-40.499-90-90-90s-91,40.499-91,90c0,7.8,1.199,15.3,2.999,22.2
	C193.599,422.899,181,393.8,181,362V256c0-8.401-6.599-15-15-15s-15,6.599-15,15v106c0,84.899,71.8,150,151,150
	c78.9,0,150-64.801,150-150V196C452,187.599,445.401,181,437,181z M302,482c-32.999,0-60-27.001-60-60c0-33.001,27.001-60,60-60
	s60,26.999,60,60C362,454.999,334.999,482,302,482z"/>
<path style="fill:#53433F;" d="M452,196v166c0,85.199-71.1,150-150,150v-30c32.999,0,60-27.001,60-60c0-33.001-27.001-60-60-60v-30
	c49.501,0,90,40.499,90,90c0,7.8-1.199,15.3-2.999,22.2C409.401,422.899,422,393.8,422,362V196c0-8.401,6.599-15,15-15
	S452,187.599,452,196z"/>
<path style="fill:#D2C5C2;" d="M467,91c-8.291,0-15-6.709-15-15V15c0-8.291,6.709-15,15-15s15,6.709,15,15v61
	C482,84.291,475.291,91,467,91z"/>
<path style="fill:#DFD7D5;" d="M407,91c-8.291,0-15-6.709-15-15V15c0-8.291,6.709-15,15-15s15,6.709,15,15v61
	C422,84.291,415.291,91,407,91z"/>
<path style="fill:#FDBF00;" d="M76,181H15c-8.291,0-15-6.709-15-15s6.709-15,15-15h61c8.291,0,15,6.709,15,15S84.291,181,76,181z"/>
<path style="fill:#FF9F00;" d="M317,181h-60c-8.291,0-15-6.709-15-15s6.709-15,15-15h60c8.291,0,15,6.709,15,15S325.291,181,317,181
	z"/>
<path style="fill:#FDBF00;" d="M59.931,287.069c-3.838,0-7.676-1.465-10.605-4.395c-5.859-5.859-5.859-15.352,0-21.211
	l42.437-42.437c5.859-5.859,15.352-5.859,21.211,0s5.859,15.352,0,21.211l-42.437,42.437
	C67.606,285.604,63.769,287.069,59.931,287.069z"/>
<g>
	<path style="fill:#FF9F00;" d="M230.633,117.367c-3.838,0-7.676-1.465-10.605-4.395c-5.859-5.859-5.859-15.352,0-21.211
		l42.437-42.437c5.859-5.859,15.352-5.859,21.211,0s5.859,15.352,0,21.211l-42.437,42.437
		C238.309,115.902,234.471,117.367,230.633,117.367z"/>
	<path style="fill:#FF9F00;" d="M273.069,287.069c-3.838,0-7.676-1.465-10.605-4.395l-42.437-42.437
		c-5.859-5.859-5.859-15.352,0-21.211s15.352-5.859,21.211,0l42.437,42.437c5.859,5.859,5.859,15.352,0,21.211
		C280.745,285.604,276.907,287.069,273.069,287.069z"/>
</g>
<path style="fill:#FDBF00;" d="M102.367,117.367c-3.838,0-7.676-1.465-10.605-4.395L49.325,70.536
	c-5.859-5.859-5.859-15.352,0-21.211s15.352-5.859,21.211,0l42.437,42.437c5.859,5.859,5.859,15.352,0,21.211
	C110.043,115.902,106.205,117.367,102.367,117.367z"/>
<path style="fill:#FFD400;" d="M166,61c-57.9,0-105,47.1-105,105s47.1,105,105,105s106-47.1,106-105S223.9,61,166,61z"/>
<path style="fill:#FDBF00;" d="M272,166c0,57.9-48.1,105-106,105V61C223.9,61,272,108.1,272,166z"/>
<path style="fill:#3AAAFF;" d="M497,61H377c-8.401,0-15,6.599-15,15v60c0,41.4,33.6,75,75,75s75-33.6,75-75V76
	C512,67.599,505.401,61,497,61z"/>
<path style="fill:#008ADF;" d="M512,76v60c0,41.4-33.6,75-75,75V61h60C505.401,61,512,67.599,512,76z"/>
<g>
</g>
<g>
</g>
<g>
</g>
<g>
</g>
<g>
</g>
<g>
</g>
<g>
</g>
<g>
</g>
<g>
</g>
<g>
</g>
<g>
</g>
<g>
</g>
<g>
</g>
<g>
</g>
<g>
</g>
</svg>
