<svg width="420" height="250.00000000000009" xmlns="http://www.w3.org/2000/svg">
 <!-- Created with Method Draw - http://github.com/duopixel/Method-Draw/ -->

 <g>
  <title>background</title>
  <rect fill="none" id="canvas_background" height="252" width="422" y="-1" x="-1"/>
 </g>
 <g>
  <title>Layer 1</title>
  <line stroke-linecap="null" stroke-linejoin="null" id="svg_1" y2="103.245284" x2="365.490651" y1="103.245284" x1="4.264129" fill-opacity="null" stroke-width="20" fill="none" stroke="#ff5656"/>
  <line stroke="#56aaff" stroke-linecap="null" stroke-linejoin="null" id="svg_2" y2="208.905544" x2="361.528364" y1="208.905544" x1="6.528301" fill-opacity="null" stroke-width="20" fill="none"/>
  <rect stroke="#56aaff" transform="rotate(90 321.5093078613282,239.33950805664065) " id="svg_9" height="2.264148" width="41.132047" y="238.207427" x="300.943289" fill-opacity="null" stroke-opacity="null" stroke-width="15" fill="none"/>
  <line transform="rotate(90 367.80172729492193,223.5867614746094) " stroke-linecap="null" stroke-linejoin="null" id="svg_29" y2="223.586758" x2="405.337671" y1="223.586758" x1="330.265784" fill-opacity="null" stroke-width="15" fill="none" stroke="#ff5656"/>
  <g stroke="null" id="svg_42">
   <path stroke="#adad72" id="svg_39" d="m361.62755,226.05494l6.40529,-11.20926l6.40529,11.20926l-12.81058,0z" fill-opacity="null" stroke-opacity="null" stroke-width="10" fill="none"/>
   <path transform="rotate(90 355.2025756835938,208.7522125244141) " stroke="#adad72" id="svg_40" d="m348.79737,214.35684l6.4053,-11.20926l6.40529,11.20926l-12.81059,0z" fill-opacity="null" stroke-opacity="null" stroke-width="10" fill="none"/>
   <path transform="rotate(-180 368.4101867675781,197.43145751953125) " stroke="#adad72" id="svg_41" d="m362.0049,203.0361l6.4053,-11.20926l6.40529,11.20926l-12.81059,0z" fill-opacity="null" stroke-opacity="null" stroke-width="10" fill="none"/>
  </g>
  <rect stroke="#56aaff" transform="rotate(90 32.45302200317381,226.1319732666016) " id="svg_54" height="2.264148" width="41.132047" y="224.999894" x="11.886999" fill-opacity="null" stroke-opacity="null" stroke-width="10" fill="none"/>
  <rect stroke="#56aaff" transform="rotate(90 258.9138488769532,228.0187683105469) " id="svg_55" height="2.264148" width="41.132047" y="226.886684" x="238.348056" fill-opacity="null" stroke-opacity="null" stroke-width="10" fill="none"/>
  <rect stroke="#56aaff" transform="rotate(90 183.04969787597656,226.50933837890628) " id="svg_56" height="2.264148" width="41.132047" y="225.377252" x="162.483671" fill-opacity="null" stroke-opacity="null" stroke-width="10" fill="none"/>
  <rect stroke="#56aaff" transform="rotate(90 107.50878906249999,229.90554809570315) " id="svg_57" height="2.264148" width="41.132047" y="228.773475" x="86.942734" fill-opacity="null" stroke-opacity="null" stroke-width="10" fill="none"/>
  <ellipse transform="rotate(-84.80553436279297 91.80724334716795,35.879402160644524) " id="svg_7" cy="35.879404" cx="91.807246" fill-opacity="null" stroke-opacity="null" stroke-width="1.5" stroke="#000" fill="none"/>
  <line transform="rotate(90 357.80172729492193,109.79365539550784) " stroke-linecap="null" stroke-linejoin="null" id="svg_20" y2="109.793652" x2="368.785948" y1="109.793652" x1="346.817501" fill-opacity="null" stroke-width="15" fill="none" stroke="#ff5656"/>
  <g id="svg_23">
   <path stroke="#adad72" id="svg_21" d="m255.500178,90.03394l6.40055,0l-3.20027,3.32755l3.20027,3.32755l-6.40055,0l3.20028,-3.32755l-3.20028,-3.32755z" fill-opacity="null" stroke-opacity="null" stroke-width="10" fill="none"/>
   <line stroke="#ff5656" transform="rotate(90 259.28466796875006,38.11197662353518) " stroke-linecap="null" stroke-linejoin="null" id="svg_22" y2="38.111975" x2="306.596516" y1="38.111975" x1="211.973503" fill-opacity="null" stroke-width="10" fill="none"/>
  </g>
  <g id="svg_26">
   <path stroke="#adad72" id="svg_24" d="m32.22781,90.03395l6.40055,0l-3.20027,3.32755l3.20027,3.32755l-6.40055,0l3.20028,-3.32755l-3.20028,-3.32755z" fill-opacity="null" stroke-opacity="null" stroke-width="10" fill="none"/>
   <line stroke="#ff5656" transform="rotate(90 36.01264190673828,38.11198806762696) " stroke-linecap="null" stroke-linejoin="null" id="svg_25" y2="38.111986" x2="83.324151" y1="38.111986" x1="-11.298862" fill-opacity="null" stroke-width="10" fill="none"/>
  </g>
  <g id="svg_33">
   <path stroke="#adad72" id="svg_31" d="m105.67609,90.03396l6.40055,0l-3.20027,3.32755l3.20027,3.32755l-6.40055,0l3.20028,-3.32755l-3.20028,-3.32755z" fill-opacity="null" stroke-opacity="null" stroke-width="10" fill="none"/>
   <line stroke="#ff5656" transform="rotate(90 109.46084594726562,38.11199188232423) " stroke-linecap="null" stroke-linejoin="null" id="svg_32" y2="38.111991" x2="156.772424" y1="38.111991" x1="62.149411" fill-opacity="null" stroke-width="10" fill="none"/>
  </g>
  <g id="svg_43">
   <path stroke="#adad72" id="svg_37" d="m180.15884,89.6891l6.40055,0l-3.20027,3.32755l3.20027,3.32755l-6.40055,0l3.20028,-3.32755l-3.20028,-3.32755z" fill-opacity="null" stroke-opacity="null" stroke-width="10" fill="none"/>
   <line stroke="#ff5656" transform="rotate(90 183.94363403320312,37.76713562011721) " stroke-linecap="null" stroke-linejoin="null" id="svg_38" y2="37.767133" x2="231.255179" y1="37.767133" x1="136.632166" fill-opacity="null" stroke-width="10" fill="none"/>
  </g>
 </g>
</svg>