<svg width="400" height="500" xmlns="http://www.w3.org/2000/svg" xmlns:xlink="http://www.w3.org/1999/xlink">
 <defs>
  <radialGradient xlink:href="#linearGradient3825" id="radialGradient3871" gradientUnits="userSpaceOnUse" gradientTransform="matrix(1,0,0,1.1090124,0.415327,-105.82722)" cx="41" cy="1020.2606" fx="41" fy="1020.2606" r="17.132328"/>
  <linearGradient id="linearGradient3825">
   <stop offset="0" id="stop3827" stop-color="#ffffff"/>
   <stop offset="1" id="stop3829" stop-color="#ffbc00"/>
  </linearGradient>
 </defs>
 <metadata id="metadata7">image/svg+xml</metadata>
 <g>
  <title>background</title>
  <rect x="-1" y="-1" width="402" height="502" id="canvas_background" fill="none"/>
 </g>
 <g>
  <title>Layer 1</title>
  <g id="g3839" transform="matrix(5,0,0,5,0,-4209.4487) ">
   <path d="m28.92583,851.640448a4.2856,3.86524 0 0 0 -3.94119,4.73949c1.12042,4.31564 0.9876,8.23146 0.16843,12.15248c-1.91017,9.1433 -8.11093,18.04543 -9.49929,28.83193c-0.79435,6.1715 0.33402,12.9802 4.91807,19.9605c1.13828,1.7334 2.48368,3.4905 4.07594,5.2864c1.58141,1.7835 3.36359,3.5966 5.42335,5.4382a4.2856,3.86524 0 0 0 4.95175,0.7292c2.74222,-1.2367 5.18168,-2.5213 7.37711,-3.8889c6.59854,-4.1101 10.89201,-9.1642 12.59835,-15.0083c0.56766,-1.9442 0.85527,-3.9449 0.9095,-6.0155c0.05381,-2.054 -0.09711,-4.1763 -0.47159,-6.3801c-0.37211,-2.1899 -0.92747,-4.4326 -1.65059,-6.7751c-0.73198,-2.371 -1.64671,-4.7961 -2.66115,-7.3218a4.2856,3.86524 0 0 0 -5.92863,-2.1571c-0.15324,-5.2117 -1.12761,-10.43237 -4.71596,-15.9198l-0.03369,-0.0304l-7.57922,-11.7272a4.2856,3.86524 0 0 0 -3.94119,-1.91403l0,0.00003z" id="path3794" stroke-miterlimit="4" stroke-width="0" stroke="#000000" fill="#ff0000"/>
   <path id="path3788" d="m32.4,925.889748c-28.99994,-28.7502 2.64948,-44.8957 -3.651,-71.803l7.06633,12.0953c5.0666,8.5657 3.99709,16.0842 3.481,25.6317l6.085,-7.7077c7.38013,20.3733 6.2523,32.1668 -12.98133,41.7837zm0,0c-28.99994,-28.7502 2.64948,-44.8957 -3.651,-71.803l7.06633,12.0953c5.0666,8.5657 3.99709,16.0842 3.481,25.6317l6.085,-7.7077c7.38013,20.3733 6.2523,32.1668 -12.98133,41.7837z" stroke-miterlimit="4" stroke-width="0" stroke="#000000" fill="url(#radialGradient3871)"/>
  </g>
 </g>
</svg>