<svg width="400" height="500" xmlns="http://www.w3.org/2000/svg" xmlns:xlink="http://www.w3.org/1999/xlink">
 <defs>
  <radialGradient r="21.18899" fy="1021.9267" fx="124" cy="1021.9267" cx="124" gradientTransform="matrix(0.80230346,1.0645012e-7,-1.1897376e-7,0.89669281,16.891042,109.53738)" gradientUnits="userSpaceOnUse" id="radialGradient3869" xlink:href="#linearGradient3817"/>
  <linearGradient id="linearGradient3817">
   <stop stop-color="#ffffff" id="stop3819" offset="0"/>
   <stop stop-color="#ffbc00" id="stop3821" offset="1"/>
  </linearGradient>
 </defs>
 <metadata id="metadata7">image/svg+xml</metadata>
 <g>
  <title>background</title>
  <rect fill="none" id="canvas_background" height="502" width="402" y="-1" x="-1"/>
 </g>
 <g>
  <title>Layer 1</title>
  <g transform="matrix(5,0,0,5,0,-4209.4487) " id="g3845">
   <path fill="#ff0000" stroke="#000000" stroke-width="0" stroke-miterlimit="4" id="path3804" d="m21.181253,849.683448a4.25136,4.25136 0 0 0 -3.53125,6.3125c3.6747,6.60491 4.20771,10.24843 3.875,12.34375c-0.33271,2.09532 -1.59216,3.59584 -3.90625,6.0625c-2.31409,2.46665 -5.49648,5.72935 -7.3125,10.78125c-0.59735,1.6617 -0.95051,3.5461 -1.1875,5.5625a4.25136,4.25136 0 0 0 -4.96875,4.1875c0,11.5144 4.41535,20.549 13.90625,28.4687a4.25136,4.25136 0 0 0 0.5,0.375c2.86201,1.7512 6.56971,4.4938 11.5625,5.3126c4.99279,0.8187 10.94089,-1.0137 16.3125,-6.5a4.25136,4.25136 0 0 0 0.5,-0.5938c6.68453,-9.8625 8.11986,-18.3595 6.9375,-25.875c-1.18236,-7.5155 -4.41653,-13.8242 -6.5,-21.0625a4.25136,4.25136 0 0 0 -5.59375,-2.78125c-0.89326,-2.67786 -2.19625,-5.18915 -3.90625,-7.5c-3.30481,-4.46604 -7.81287,-8.51946 -13.59375,-13.9375a4.25136,4.25136 0 0 0 -3.09375,-1.15625z"/>
   <path fill="url(#radialGradient3869)" stroke="#000000" stroke-width="0" stroke-miterlimit="4" d="m8.398573,894.920648l6.08499,9.736c-8.17227,-33.3304 22.52128,-22.624 6.89633,-50.7083c11.59357,10.8659 17.44366,16.0306 17.44366,26.3683l4.46234,-4.0567c4.42371,15.3686 12.61589,24.9027 0.11411,43.3482c-9.43303,9.6346 -16.59827,4.2161 -22.62345,0.5295c-8.86614,-7.3984 -12.37798,-14.643 -12.37798,-25.217z" id="path3799"/>
  </g>
 </g>
</svg>