<svg width="400" height="500" xmlns="http://www.w3.org/2000/svg" xmlns:xlink="http://www.w3.org/1999/xlink">
 <defs>
  <radialGradient r="18.349331" fy="1019.696" fx="204" cy="1019.696" cx="204" gradientTransform="matrix(0.76297079,-0.05449094,0.07417117,1.0385295,-28.787425,-20.779682)" gradientUnits="userSpaceOnUse" id="radialGradient3983" xlink:href="#linearGradient3863"/>
  <linearGradient id="linearGradient3863">
   <stop stop-color="#ffffff" id="stop3865" offset="0"/>
   <stop stop-color="#ffbb00" id="stop3867" offset="1"/>
  </linearGradient>
  <radialGradient r="18.349331" fy="1019.696" fx="204" cy="1019.696" cx="204" gradientTransform="matrix(0.76297079,-0.05449094,0.07417117,1.0385295,-27.787425,-21.779682)" gradientUnits="userSpaceOnUse" id="radialGradient3985" xlink:href="#linearGradient3863"/>
 </defs>
 <metadata id="metadata7">image/svg+xml</metadata>
 <g>
  <title>background</title>
  <rect fill="none" id="canvas_background" height="502" width="402" y="-1" x="-1"/>
 </g>
 <g>
  <title>Layer 1</title>
  <g transform="matrix(5,0,0,5,0,-4209.4487) " id="g3977">
   <g id="g3851">
    <path fill="url(#radialGradient3983)" stroke="#000000" stroke-width="0" stroke-miterlimit="4" d="m31.927837,926.395744c-17.18689,-10.3019 -15.71399,-20.3977 -9.33033,-35.293l3.651,-7.302l-2.02833,12.5757c13.22132,-21.74531 -0.0125,-18.6805 10.14166,-41.37797c8.02707,21.95457 17.885,26.66117 12.57566,49.49127l6.49067,-5.2736c-2.25961,17.4112 -6.35058,23.9149 -21.50033,27.1796z" id="path2991"/>
    <path fill="#ff0000" stroke="#000000" stroke-width="0" stroke-miterlimit="4" d="m35.468747,849.627544a4.37077,4.37077 0 0 0 -4.09375,2.59375c-5.3358,11.92706 -4.64611,18.62442 -4.28125,23.1875c0.0859,1.07447 0.15881,2.03425 0.15625,3.03125a4.37077,4.37077 0 0 0 -3.90625,2.4063l-3.65625,7.2812a4.37077,4.37077 0 0 0 -0.125,0.25c-3.28542,7.666 -5.68247,14.6705 -4.4375,21.8438c1.24497,7.1732 6.38125,13.4342 15.5625,18.9374a4.37077,4.37077 0 0 0 3.15625,0.5313c8.08063,-1.7413 14.17367,-4.693 18.15625,-9.9375c3.98258,-5.2445 5.61707,-11.9983 6.78125,-20.9688a4.37077,4.37077 0 0 0 -5.1875,-4.8437c0.2753,-6.7064 -0.85157,-12.2161 -2.90625,-17.1875c-3.04107,-7.35799 -7.36843,-13.71912 -11.21875,-24.25a4.37077,4.37077 0 0 0 -4,-2.875z" id="path3815"/>
    <path fill="url(#radialGradient3985)" stroke="#000000" stroke-width="0" stroke-miterlimit="4" id="path3810" d="m32.927837,925.395744c-17.18689,-10.3019 -15.71399,-20.3977 -9.33033,-35.293l3.651,-7.302l-2.02833,12.5757c13.22132,-21.74531 -0.0125,-18.6805 10.14166,-41.37797c8.02707,21.95457 17.885,26.66117 12.57566,49.49127l6.49067,-5.2736c-2.25961,17.4112 -6.35058,23.9149 -21.50033,27.1796z"/>
   </g>
  </g>
 </g>
</svg>