<svg width="400" height="500" xmlns="http://www.w3.org/2000/svg" xmlns:xlink="http://www.w3.org/1999/xlink">
 <defs>
  <radialGradient xlink:href="#linearGradient3817-1" id="radialGradient3975" gradientUnits="userSpaceOnUse" gradientTransform="matrix(0.80230346,1.0645012e-7,-1.1897376e-7,0.89669281,180.89104,109.53738)" cx="124" cy="1021.9267" fx="124" fy="1021.9267" r="21.18899"/>
  <linearGradient id="linearGradient3817-1">
   <stop offset="0" id="stop3819-7" stop-color="#ffffff"/>
   <stop offset="1" id="stop3821-4" stop-color="#ffbc00"/>
  </linearGradient>
 </defs>
 <metadata id="metadata7">image/svg+xml</metadata>
 <g>
  <title>background</title>
  <rect x="-1" y="-1" width="402" height="502" id="canvas_background" fill="none"/>
 </g>
 <g>
  <title>Layer 1</title>
  <g id="g3860" transform="matrix(5,0,0,5,0,-4209.4487) ">
   <path d="m24.475006,851.9938a4.0344,4.0344 0 0 0 -3.4375,6c3.226,5.7351 4.5764,8.90316 4.59375,11.78125c0.008,1.31802 -0.28507,2.84249 -0.9375,4.6875a4.0344,4.0344 0 0 0 -6.21875,-1.71875c-4.44982,3.44377 -8.25517,10.24575 -9.375,19.24995c-1.11983,9.0043 1.10544,20.138 10.15625,30.375c2.52517,2.8562 6.13947,5.8335 11.15625,6.4688c5.01678,0.6353 10.7697,-1.1161 17.5,-5.8125a4.0344,4.0344 0 0 0 0.5625,-0.5c3.4821,-3.556 6.04804,-6.8607 7.46875,-10.875c1.42071,-4.0143 1.57645,-8.3963 1.03125,-13.8125a4.0344,4.0344 0 0 0 -4.53125,-3.5938c0.1601,-7.0257 -1.69637,-12.8818 -5.09375,-17.9687c-4.81607,-7.21116 -11.83808,-13.33457 -19.65625,-22.8125a4.0344,4.0344 0 0 0 -3.21875,-1.46875z" id="path3828" stroke-miterlimit="4" stroke-width="0" stroke="#000000" fill="#ff0000"/>
   <path id="path3014" d="m20.928906,875.91755l3.24533,8.9247c7.58254,-13.5119 6.98022,-17.1142 0.40566,-28.8023c16.03263,19.4363 28.20552,25.0212 22.71733,46.6517l5.67933,-4.4624c1.03154,10.2476 -0.78047,14.7345 -7.37655,21.4705c-12.48784,8.714 -18.86903,5.0049 -23.30278,-0.01c-16.6711,-18.8561 -7.37716,-39.1454 -1.36832,-43.7741l0,0.0019z" stroke-miterlimit="4" stroke-width="0" stroke="#000000" fill="url(#radialGradient3975)"/>
  </g>
 </g>
</svg>