<?xml version="1.0" encoding="iso-8859-1"?>
<!-- Generator: Adobe Illustrator 19.0.0, SVG Export Plug-In . SVG Version: 6.00 Build 0)  -->
<svg version="1.1" id="Layer_1" xmlns="http://www.w3.org/2000/svg" xmlns:xlink="http://www.w3.org/1999/xlink" x="0px" y="0px"
	 viewBox="0 0 512 512" style="enable-background:new 0 0 512 512;" xml:space="preserve">
<rect x="140.221" y="95.633" style="fill:#B1DDF7;" width="231.558" height="248.454"/>
<path style="fill:#F1F1F2;" d="M129.672,85.082v254.554h21.098V221.959h95.082v117.676h21.098V221.959h94.281v117.676h21.098V85.082
	H129.672z M150.77,200.861V106.18h95.082v94.681H150.77z M266.949,200.861V106.18h94.281v94.681H266.949z"/>
<rect x="256" y="95.633" style="fill:#9EC6DD;" width="115.779" height="248.454"/>
<path style="fill:#D8D8D9;" d="M266.949,339.635V221.959h94.281v117.676h21.098V85.082H256v254.554h10.949V339.635z
	 M266.949,200.861V106.18h94.281v94.681H266.949z"/>
<rect x="104.793" y="327.19" style="fill:#CBCBCE;" width="302.403" height="33.791"/>
<rect x="104.793" y="344.086" style="fill:#B7B7B9;" width="302.403" height="16.895"/>
<rect x="10.297" y="53.727" style="fill:#69351D;" width="491.409" height="20.528"/>
<rect x="10.297" y="63.989" style="fill:#542C19;" width="491.409" height="10.263"/>
<rect x="395.297" y="53.727" style="fill:#E58FBE;" width="103.736" height="390.456"/>
<g>
	<path style="fill:#CE81AB;" d="M384.968,458.277h20.654c1.458,0,2.64-1.182,2.64-2.64V53.723h-25.934v401.913
		C382.328,457.095,383.51,458.277,384.968,458.277z"/>
	<path style="fill:#CE81AB;" d="M436.837,458.277h20.654c1.458,0,2.64-1.182,2.64-2.64V53.723h-25.934v401.913
		C434.197,457.095,435.379,458.277,436.837,458.277z"/>
	<path style="fill:#CE81AB;" d="M488.706,458.277h20.654c1.458,0,2.64-1.182,2.64-2.64V53.723h-25.934v401.913
		C486.066,457.095,487.248,458.277,488.706,458.277z"/>
</g>
<rect x="12.967" y="53.727" style="fill:#E58FBE;" width="103.736" height="390.456"/>
<g>
	<path style="fill:#CE81AB;" d="M127.032,458.277h-20.654c-1.458,0-2.64-1.182-2.64-2.64V53.723h25.934v401.913
		C129.672,457.095,128.49,458.277,127.032,458.277z"/>
	<path style="fill:#CE81AB;" d="M75.163,458.277H54.509c-1.458,0-2.64-1.182-2.64-2.64V53.723h25.934v401.913
		C77.803,457.095,76.621,458.277,75.163,458.277z"/>
	<path style="fill:#CE81AB;" d="M23.294,458.277H2.64c-1.458,0-2.64-1.182-2.64-2.64V53.723h25.934v401.913
		C25.934,457.095,24.752,458.277,23.294,458.277z"/>
</g>
<g>
</g>
<g>
</g>
<g>
</g>
<g>
</g>
<g>
</g>
<g>
</g>
<g>
</g>
<g>
</g>
<g>
</g>
<g>
</g>
<g>
</g>
<g>
</g>
<g>
</g>
<g>
</g>
<g>
</g>
</svg>
