<svg width="300" height="300" xmlns="http://www.w3.org/2000/svg">

 <g>
  <title>background</title>
  <rect fill="none" id="canvas_background" height="302" width="302" y="-1" x="-1"/>
 </g>
 <g>
  <title>Layer 1</title>
  <g id="svg_1">
   <path id="svg_2" d="m298,141l-59.517,0c-3.323,-9.592 -12.442,-16.5 -23.151,-16.5s-19.828,6.908 -23.151,16.5l-85.695,0c-3.323,-9.592 -12.442,-16.5 -23.151,-16.5s-19.828,6.908 -23.151,16.5l-60.184,0l0,16l60.183,0c3.323,9.592 12.442,16.5 23.151,16.5s19.828,-6.908 23.151,-16.5l85.695,0c3.323,9.592 12.442,16.5 23.151,16.5s19.828,-6.908 23.151,-16.5l59.518,0l0,-16zm-74.168,8c0,4.686 -3.814,8.5 -8.5,8.5c-4.687,0 -8.5,-3.814 -8.5,-8.5s3.813,-8.5 8.5,-8.5c4.686,0 8.5,3.814 8.5,8.5zm-131.998,0c0,4.686 -3.814,8.5 -8.5,8.5c-4.687,0 -8.5,-3.814 -8.5,-8.5s3.813,-8.5 8.5,-8.5c4.686,0 8.5,3.814 8.5,8.5z"/>
  </g>
 </g>
</svg>