<?xml version="1.0" encoding="iso-8859-1"?>
<!-- Generator: Adobe Illustrator 19.0.0, SVG Export Plug-In . SVG Version: 6.00 Build 0)  -->
<svg version="1.1" id="Capa_1" xmlns="http://www.w3.org/2000/svg" xmlns:xlink="http://www.w3.org/1999/xlink" x="0px" y="0px"
	 viewBox="0 0 416.427 416.427" style="enable-background:new 0 0 416.427 416.427;" xml:space="preserve">
<polyline style="fill:#FFFFFF;" points="375.467,257.437 375.467,409.6 40.96,409.6 40.96,6.827 375.467,6.827 375.467,211.625 "/>
<path style="fill:#602F75;" d="M375.467,416.427H40.96c-3.773,0-6.827-3.053-6.827-6.827V6.827C34.133,3.053,37.187,0,40.96,0
	h334.507c3.773,0,6.827,3.053,6.827,6.827v204.8c0,3.773-3.053,6.827-6.827,6.827s-6.827-3.053-6.827-6.827V13.653H47.787v389.12
	H368.64v-145.34c0-3.773,3.053-6.827,6.827-6.827s6.827,3.053,6.827,6.827V409.6C382.293,413.373,379.24,416.427,375.467,416.427z"
	/>
<circle style="fill:#EA3457;" cx="129.707" cy="320.853" r="34.133"/>
<path style="fill:#602F75;" d="M129.707,361.813c-22.586,0-40.96-18.374-40.96-40.96c0-22.586,18.374-40.96,40.96-40.96
	s40.96,18.374,40.96,40.96C170.667,343.439,152.293,361.813,129.707,361.813z M129.707,293.547
	c-15.06,0-27.307,12.247-27.307,27.307s12.247,27.307,27.307,27.307c15.06,0,27.307-12.247,27.307-27.307
	S144.766,293.547,129.707,293.547z"/>
<g>
	<path style="fill:#EA3457;" d="M129.707,273.067c-3.773,0-6.827-3.053-6.827-6.827v-40.96c0-3.773,3.053-6.827,6.827-6.827
		c3.773,0,6.827,3.053,6.827,6.827v40.96C136.533,270.013,133.48,273.067,129.707,273.067z"/>
	<path style="fill:#EA3457;" d="M150.187,252.587h-40.96c-3.773,0-6.827-3.053-6.827-6.827s3.053-6.827,6.827-6.827h40.96
		c3.773,0,6.827,3.053,6.827,6.827S153.96,252.587,150.187,252.587z"/>
</g>
<circle style="fill:#FFE600;" cx="286.72" cy="320.853" r="34.133"/>
<path style="fill:#602F75;" d="M286.72,361.813c-22.586,0-40.96-18.374-40.96-40.96c0-22.586,18.374-40.96,40.96-40.96
	c22.586,0,40.96,18.374,40.96,40.96C327.68,343.439,309.306,361.813,286.72,361.813z M286.72,293.547
	c-15.06,0-27.307,12.247-27.307,27.307s12.247,27.307,27.307,27.307s27.307-12.247,27.307-27.307S301.78,293.547,286.72,293.547z"/>
<path style="fill:#EA3457;" d="M307.2,252.587h-40.96c-3.773,0-6.827-3.053-6.827-6.827s3.053-6.827,6.827-6.827h40.96
	c3.773,0,6.827,3.053,6.827,6.827S310.973,252.587,307.2,252.587z"/>
<rect x="68.267" y="34.133" style="fill:#00E7FF;" width="279.893" height="109.227"/>
<g>
	<path style="fill:#602F75;" d="M348.16,150.187H68.267c-3.773,0-6.827-3.053-6.827-6.827V34.133c0-3.773,3.053-6.827,6.827-6.827
		H348.16c3.773,0,6.827,3.053,6.827,6.827V143.36C354.987,147.133,351.933,150.187,348.16,150.187z M75.093,136.533h266.24V40.96
		H75.093V136.533z"/>
	<path style="fill:#602F75;" d="M191.147,150.187c-1.746,0-3.494-0.667-4.826-2c-2.666-2.666-2.666-6.987,0-9.653l68.267-68.267
		c2.666-2.666,6.987-2.666,9.653,0c2.666,2.666,2.666,6.987,0,9.653l-68.267,68.267C194.64,149.519,192.893,150.187,191.147,150.187
		z"/>
</g>
<rect x="47.787" y="150.187" style="fill:#EAEAEA;" width="320.853" height="61.44"/>
<g>
</g>
<g>
</g>
<g>
</g>
<g>
</g>
<g>
</g>
<g>
</g>
<g>
</g>
<g>
</g>
<g>
</g>
<g>
</g>
<g>
</g>
<g>
</g>
<g>
</g>
<g>
</g>
<g>
</g>
</svg>
