<svg width="70" height="100" xmlns="http://www.w3.org/2000/svg" style="vector-effect: non-scaling-stroke;" stroke="null">
 <!-- Created with Method Draw - http://github.com/duopixel/Method-Draw/ -->

 <g stroke="null">
  <title stroke="null">background</title>
  <rect stroke="null" x="-1" y="-1" width="72" height="102" id="canvas_background" fill="none"/>
 </g>
 <g stroke="null">
  <title stroke="null">Layer 1</title>
  <ellipse stroke="#000" fill="none" stroke-width="1.5" stroke-opacity="null" fill-opacity="null" cx="91.807246" cy="35.879404" id="svg_7" transform="rotate(-84.80553436279297 91.80724334716795,35.879402160644524) "/>
  <rect stroke="#000000" fill="none" fill-opacity="null" x="116.5" y="208.5" width="1" height="0" id="svg_3"/>
  <g id="svg_33">
   <ellipse stroke="#ff0000" fill="none" stroke-width="3" fill-opacity="null" cx="73.359446" cy="88.08526" id="svg_16"/>
   <path id="svg_22" d="m2.746903,8.333332" opacity="0.5" fill-opacity="null" stroke-width="5" stroke="#ff0000" fill="none"/>
   <path stroke-width="5" id="svg_29" d="m2.746903,8.641974c0,0 54.938272,-4.012345 57.098766,9.567902c2.160494,13.580246 -57.098766,10.185185 -57.376534,10.185185" opacity="0.5" fill-opacity="null" stroke="#ff0000" fill="none"/>
   <path stroke-width="5" id="svg_30" d="m3.055545,28.703701c0,0 54.938272,-4.012345 57.098766,9.567902c2.160494,13.580246 -57.098766,10.185185 -57.376534,10.185185" opacity="0.5" fill-opacity="null" stroke="#ff0000" fill="none"/>
   <path stroke-width="5" id="svg_31" d="m3.364187,48.765429c0,0 54.938272,-4.012345 57.098766,9.567902c2.160494,13.580246 -57.098766,10.185185 -57.376534,10.185185" opacity="0.5" fill-opacity="null" stroke="#ff0000" fill="none"/>
   <path stroke-width="5" id="svg_32" d="m3.672829,69.444442c0,0 54.938272,-4.012345 57.098766,9.567902c2.160494,13.580246 -57.098766,10.185185 -57.376534,10.185185" opacity="0.5" fill-opacity="null" stroke="#ff0000" fill="none"/>
  </g>
 </g>
</svg>