<?xml version="1.0" encoding="iso-8859-1"?>
<!-- Generator: Adobe Illustrator 19.0.0, SVG Export Plug-In . SVG Version: 6.00 Build 0)  -->
<svg version="1.1" id="Capa_1" xmlns="http://www.w3.org/2000/svg" xmlns:xlink="http://www.w3.org/1999/xlink" x="0px" y="0px"
	 viewBox="0 0 512 512" style="enable-background:new 0 0 512 512;" xml:space="preserve">
<path style="fill:#EDEBED;" d="M99.097,371.613v123.871c0,9.121,7.395,16.516,16.516,16.516h280.774
	c9.121,0,16.516-7.395,16.516-16.516V371.613H99.097z"/>
<rect x="99.1" y="371.61" style="fill:#DBD9DC;" width="313.81" height="24.774"/>
<g>
	<path style="fill:#4B3F4E;" d="M49.548,173.419c-9.121,0-16.516,7.394-16.516,16.516c0,9.121,7.395,16.516,16.516,16.516
		s16.516,7.394,16.516,16.516v-66.065C66.065,166.025,58.67,173.419,49.548,173.419z"/>
	<path style="fill:#4B3F4E;" d="M462.452,173.419c-9.121,0-16.516-7.395-16.516-16.516v66.065c0-9.122,7.395-16.516,16.516-16.516
		s16.516-7.395,16.516-16.516C478.968,180.814,471.573,173.419,462.452,173.419z"/>
</g>
<path style="fill:#6F6571;" d="M412.903,379.871H99.097c-18.243,0-33.032-14.789-33.032-33.032V33.032
	C66.065,14.789,80.854,0,99.097,0h313.806c18.243,0,33.032,14.789,33.032,33.032v313.806
	C445.935,365.082,431.146,379.871,412.903,379.871z"/>
<path style="fill:#5D5360;" d="M421.161,313.806V49.548c0-13.682-11.092-24.774-24.774-24.774H132.129
	c-4.561,0-8.258-3.697-8.258-8.258V0H99.097C80.854,0,66.065,14.789,66.065,33.032v313.806c0,18.243,14.789,33.032,33.032,33.032
	h313.806c18.243,0,33.032-14.789,33.032-33.032v-24.774h-16.516C424.859,322.065,421.161,318.367,421.161,313.806z"/>
<path style="fill:#EDEBED;" d="M396.387,338.581H115.613c-4.561,0-8.258-3.697-8.258-8.258V49.548c0-4.561,3.697-8.258,8.258-8.258
	h280.774c4.561,0,8.258,3.697,8.258,8.258v280.774C404.645,334.883,400.948,338.581,396.387,338.581z"/>
<path style="fill:#5D5360;" d="M132.129,379.871v57.806c0,4.56,3.697,8.258,8.258,8.258h231.226c4.561,0,8.258-3.698,8.258-8.258
	v-57.806H132.129z"/>
<rect x="132.13" y="379.87" style="fill:#4B3F4E;" width="247.74" height="16.516"/>
<path style="fill:#5D5360;" d="M346.839,181.677H165.161c-4.561,0-8.258-3.697-8.258-8.258v-33.032c0-4.561,3.697-8.258,8.258-8.258
	h181.677c4.561,0,8.258,3.697,8.258,8.258v33.032C355.097,177.98,351.4,181.677,346.839,181.677z"/>
<g>
	<circle style="fill:#C9C6CA;" cx="173.42" cy="239.48" r="16.516"/>
	<circle style="fill:#C9C6CA;" cx="338.58" cy="239.48" r="16.516"/>
</g>
<circle style="fill:#E6646E;" cx="256" cy="239.48" r="16.516"/>
<g>
	<rect x="181.68" y="132.13" style="fill:#4B3F4E;" width="16.516" height="49.548"/>
	<rect x="214.71" y="132.13" style="fill:#4B3F4E;" width="16.516" height="49.548"/>
	<rect x="247.74" y="132.13" style="fill:#4B3F4E;" width="16.516" height="49.548"/>
	<rect x="280.77" y="132.13" style="fill:#4B3F4E;" width="16.516" height="49.548"/>
	<rect x="313.81" y="132.13" style="fill:#4B3F4E;" width="16.516" height="49.548"/>
</g>
<path style="fill:#E6646E;" d="M346.839,181.677h-16.516v-49.548h16.516c4.561,0,8.258,3.697,8.258,8.258v33.032
	C355.097,177.98,351.4,181.677,346.839,181.677z"/>
<g>
	<path style="fill:#DBD9DC;" d="M222.968,322.065c-54.73,0-99.097-44.367-99.097-99.097V41.29h-8.258
		c-4.561,0-8.258,3.697-8.258,8.258v280.774c0,4.56,3.697,8.258,8.258,8.258h280.774c4.561,0,8.258-3.698,8.258-8.258v-8.258
		H222.968V322.065z"/>
	<path style="fill:#DBD9DC;" d="M173.419,379.871v41.29c0,4.56,3.694,8.258,8.258,8.258s8.258-3.698,8.258-8.258v-41.29H173.419z"/>
</g>
<g>
	<circle style="fill:#C9C6CA;" cx="181.68" cy="421.16" r="8.258"/>
	<circle style="fill:#C9C6CA;" cx="181.68" cy="396.39" r="8.258"/>
</g>
<path style="fill:#DBD9DC;" d="M222.968,379.871v41.29c0,4.56,3.694,8.258,8.258,8.258c4.565,0,8.258-3.698,8.258-8.258v-41.29
	H222.968z"/>
<g>
	<circle style="fill:#C9C6CA;" cx="231.23" cy="421.16" r="8.258"/>
	<circle style="fill:#C9C6CA;" cx="231.23" cy="396.39" r="8.258"/>
</g>
<path style="fill:#DBD9DC;" d="M272.516,379.871v41.29c0,4.56,3.694,8.258,8.258,8.258s8.258-3.698,8.258-8.258v-41.29H272.516z"/>
<g>
	<circle style="fill:#C9C6CA;" cx="280.77" cy="421.16" r="8.258"/>
	<circle style="fill:#C9C6CA;" cx="280.77" cy="396.39" r="8.258"/>
</g>
<path style="fill:#DBD9DC;" d="M322.065,379.871v41.29c0,4.56,3.694,8.258,8.258,8.258s8.258-3.698,8.258-8.258v-41.29H322.065z"/>
<g>
	<circle style="fill:#C9C6CA;" cx="330.32" cy="421.16" r="8.258"/>
	<circle style="fill:#C9C6CA;" cx="330.32" cy="396.39" r="8.258"/>
</g>
<g>
</g>
<g>
</g>
<g>
</g>
<g>
</g>
<g>
</g>
<g>
</g>
<g>
</g>
<g>
</g>
<g>
</g>
<g>
</g>
<g>
</g>
<g>
</g>
<g>
</g>
<g>
</g>
<g>
</g>
</svg>
