<?xml version="1.0" encoding="iso-8859-1"?>
<!-- Generator: Adobe Illustrator 19.0.0, SVG Export Plug-In . SVG Version: 6.00 Build 0)  -->
<svg version="1.1" id="Capa_1" xmlns="http://www.w3.org/2000/svg" xmlns:xlink="http://www.w3.org/1999/xlink" x="0px" y="0px"
	 viewBox="0 0 512.002 512.002" style="enable-background:new 0 0 512.002 512.002;" xml:space="preserve">
<path style="fill:#C6E2F7;" d="M308.968,295.495V52.966C308.968,23.711,285.257,0,256.002,0l0,0
	c-29.255,0-52.965,23.711-52.965,52.966v242.529c-40.033,20.886-66.251,64.6-61.166,113.929
	c5.455,52.913,48.154,95.991,101.032,101.853c69.244,7.662,127.859-46.336,127.859-114.035
	C370.761,352.98,345.664,314.642,308.968,295.495z"/>
<path style="fill:#DD352E;" d="M273.657,328.934V167.724c0-9.754-7.91-17.655-17.655-17.655c-9.746,0-17.655,7.901-17.655,17.655
	v161.209c-30.446,7.857-52.966,35.416-52.966,68.308c0,39,31.62,70.621,70.621,70.621s70.621-31.62,70.621-70.621
	C326.623,364.35,304.104,336.79,273.657,328.934z"/>
<path style="fill:#B02721;" d="M256.002,432.552c-19.474,0-35.31-15.837-35.31-35.31c0-19.474,15.837-35.31,35.31-35.31
	c4.873,0,8.828,3.955,8.828,8.828c0,4.873-3.955,8.828-8.828,8.828c-9.737,0-17.655,7.918-17.655,17.655
	c0,9.737,7.918,17.655,17.655,17.655c9.737,0,17.655-7.918,17.655-17.655c0-4.873,3.955-8.828,8.828-8.828
	c4.873,0,8.828,3.955,8.828,8.828C291.313,416.715,275.476,432.552,256.002,432.552z"/>
<g>
	<path style="fill:#9AB9CC;" d="M247.175,61.793c0,4.873,3.955,8.828,8.828,8.828h52.966V52.966h-52.966
		C251.129,52.966,247.175,56.92,247.175,61.793z"/>
	<path style="fill:#9AB9CC;" d="M273.657,114.759h35.31V97.103h-35.31c-4.873,0-8.828,3.955-8.828,8.828
		C264.83,110.804,268.785,114.759,273.657,114.759z"/>
</g>
<g>
</g>
<g>
</g>
<g>
</g>
<g>
</g>
<g>
</g>
<g>
</g>
<g>
</g>
<g>
</g>
<g>
</g>
<g>
</g>
<g>
</g>
<g>
</g>
<g>
</g>
<g>
</g>
<g>
</g>
</svg>
