<svg width="420" height="250.0000000000001" xmlns="http://www.w3.org/2000/svg">
 <!-- Created with Method Draw - http://github.com/duopixel/Method-Draw/ -->

 <g>
  <title>background</title>
  <rect x="-1" y="-1" width="173.428198" height="104.040594" id="canvas_background" fill="none"/>
 </g>
 <g>
  <title>Layer 1</title>
  <line stroke="#ff0000" fill="none" stroke-width="20" fill-opacity="null" x1="4.264129" y1="103.245284" x2="365.490651" y2="103.245284" id="svg_1" stroke-linejoin="null" stroke-linecap="null"/>
  <line fill="none" stroke-width="20" fill-opacity="null" x1="6.528301" y1="208.905544" x2="361.528364" y2="208.905544" id="svg_2" stroke-linejoin="null" stroke-linecap="null" stroke="#56aaff"/>
  <rect fill="none" stroke-width="15" stroke-opacity="null" fill-opacity="null" x="300.943289" y="238.207427" width="41.132047" height="2.264148" id="svg_9" transform="rotate(90 321.5093078613282,239.33950805664065) " stroke="#56aaff"/>
  <line stroke="#ff5656" fill="none" stroke-width="15" fill-opacity="null" x1="330.265784" y1="223.586758" x2="405.337671" y2="223.586758" id="svg_29" stroke-linejoin="null" stroke-linecap="null" transform="rotate(90 367.80172729492193,223.5867614746094) "/>
  <g id="svg_42" stroke="null">
   <path fill="none" stroke-width="10" stroke-opacity="null" fill-opacity="null" d="m361.62755,226.05494l6.40529,-11.20926l6.40529,11.20926l-12.81058,0z" id="svg_39" stroke="#adad72"/>
   <path fill="none" stroke-width="10" stroke-opacity="null" fill-opacity="null" d="m348.79737,214.35684l6.4053,-11.20926l6.40529,11.20926l-12.81059,0z" id="svg_40" stroke="#adad72" transform="rotate(90 355.2025756835938,208.7522125244141) "/>
   <path fill="none" stroke-width="10" stroke-opacity="null" fill-opacity="null" d="m362.0049,203.0361l6.4053,-11.20926l6.40529,11.20926l-12.81059,0z" id="svg_41" stroke="#adad72" transform="rotate(-180 368.4101867675781,197.43145751953125) "/>
  </g>
  <rect fill="none" stroke-width="10" stroke-opacity="null" fill-opacity="null" x="11.886999" y="224.999894" width="41.132047" height="2.264148" id="svg_54" transform="rotate(90 32.45302200317381,226.1319732666016) " stroke="#56aaff"/>
  <rect fill="none" stroke-width="10" stroke-opacity="null" fill-opacity="null" x="238.348056" y="226.886684" width="41.132047" height="2.264148" id="svg_55" transform="rotate(90 258.91406250000006,228.0187683105469) " stroke="#56aaff"/>
  <rect fill="none" stroke-width="10" stroke-opacity="null" fill-opacity="null" x="119.464985" y="223.867824" width="41.132047" height="2.264148" id="svg_56" transform="rotate(90 140.03102111816406,224.99992370605472) " stroke="#56aaff"/>
  <rect fill="none" stroke-width="10" stroke-opacity="null" fill-opacity="null" x="64.678677" y="228.396118" width="41.132047" height="2.264148" id="svg_57" transform="rotate(90 85.2447052001953,229.52819824218753) " stroke="#56aaff"/>
  <ellipse fill="none" stroke="#000" stroke-width="1.5" stroke-opacity="null" fill-opacity="null" cx="91.807246" cy="35.879404" id="svg_7" transform="rotate(-84.80553436279297 91.80724334716795,35.879402160644524) "/>
  <line stroke="#ff0000" fill="none" stroke-width="15" fill-opacity="null" x1="346.817501" y1="109.793652" x2="368.785948" y2="109.793652" id="svg_20" stroke-linejoin="null" stroke-linecap="null" transform="rotate(90 357.80172729492193,109.79365539550784) "/>
  <g id="svg_23">
   <path fill="none" stroke-width="10" stroke-opacity="null" fill-opacity="null" d="m236.632334,90.411297l6.40055,0l-3.20027,3.32755l3.20027,3.32755l-6.40055,0l3.20028,-3.32755l-3.20028,-3.32755z" id="svg_21" stroke="#adad72"/>
   <line fill="none" stroke-width="10" fill-opacity="null" x1="193.105659" y1="38.489332" x2="287.728672" y2="38.489332" id="svg_22" stroke-linejoin="null" stroke-linecap="null" transform="rotate(90 240.41751098632812,38.489334106445334) " stroke="#ff5656"/>
  </g>
  <g id="svg_26">
   <path fill="none" stroke-width="10" stroke-opacity="null" fill-opacity="null" d="m32.22781,90.03395l6.40055,0l-3.20027,3.32755l3.20027,3.32755l-6.40055,0l3.20028,-3.32755l-3.20028,-3.32755z" id="svg_24" stroke="#adad72"/>
   <line fill="none" stroke-width="10" fill-opacity="null" x1="-11.298862" y1="38.111986" x2="83.324151" y2="38.111986" id="svg_25" stroke-linejoin="null" stroke-linecap="null" transform="rotate(90 36.01264572143555,38.11198425292969)" stroke="#ff5656"/>
  </g>
  <g id="svg_33">
   <path fill="none" stroke-width="10" stroke-opacity="null" fill-opacity="null" d="m97.751595,90.03396l6.40055,0l-3.20027,3.32755l3.20027,3.32755l-6.40055,0l3.20028,-3.32755l-3.20028,-3.32755z" id="svg_31" stroke="#adad72"/>
   <line fill="none" stroke-width="10" fill-opacity="null" x1="54.224916" y1="38.111991" x2="148.847929" y2="38.111991" id="svg_32" stroke-linejoin="null" stroke-linecap="null" transform="rotate(90 101.53641510009767,38.111991882324226) " stroke="#ff5656"/>
  </g>
  <g id="svg_43">
   <path fill="none" stroke-width="10" stroke-opacity="null" fill-opacity="null" d="m166.951349,89.6891l6.40055,0l-3.20027,3.32755l3.20027,3.32755l-6.40055,0l3.20028,-3.32755l-3.20028,-3.32755z" id="svg_37" stroke="#adad72"/>
   <line fill="none" stroke-width="10" fill-opacity="null" x1="123.424675" y1="37.767133" x2="218.047688" y2="37.767133" id="svg_38" stroke-linejoin="null" stroke-linecap="null" transform="rotate(90 170.73641967773438,37.76713180541994) " stroke="#ff5656"/>
  </g>
  <g id="svg_5">
   <path fill="none" stroke-width="10" stroke-opacity="null" fill-opacity="null" d="m302.29243,90.411297l6.40055,0l-3.20027,3.32755l3.20027,3.32755l-6.40055,0l3.20028,-3.32755l-3.20028,-3.32755z" id="svg_3" stroke="#adad72"/>
   <line fill="none" stroke-width="10" fill-opacity="null" x1="258.765755" y1="38.489332" x2="353.388768" y2="38.489332" id="svg_4" stroke-linejoin="null" stroke-linecap="null" transform="rotate(90 306.0777282714844,38.48933029174808) " stroke="#ff5656"/>
  </g>
  <rect fill="none" stroke-width="10" stroke-opacity="null" fill-opacity="null" x="176.838884" y="228.773468" width="41.132047" height="2.264148" id="svg_8" transform="rotate(90 197.40489196777344,229.90554809570315) " stroke="#56aaff"/>
 </g>
</svg>