<?xml version="1.0" encoding="utf-8"?>
<!-- Generator: Adobe Illustrator 19.1.1, SVG Export Plug-In . SVG Version: 6.00 Build 0)  -->
<svg version="1.1"  xmlns="http://www.w3.org/2000/svg" xmlns:xlink="http://www.w3.org/1999/xlink" x="0px" y="0px"
	 viewBox="0 0 48 48" enable-background="new 0 0 48 48" xml:space="preserve">
<path fill="#795548" d="M30,6c0,10.4,0,17.6,0,28l11,5V16C41,16,35.9,6,30,6L30,6z M18,6C12.1,6,7,16,7,16v23l11-5
	C18,23.6,18,16.4,18,6L18,6z"/>
<path fill="#C5CAE9" d="M46,41h-5V15h5V41z M2,41h5V15H2V41z"/>
<path fill="#9FA8DA" d="M40,13h7v0.8c0,0.7-0.5,1.2-1.2,1.2h-4.6c-0.7,0-1.2-0.5-1.2-1.2V13z M8,13H1v0.8C1,14.5,1.5,15,2.2,15h4.6
	C7.5,15,8,14.5,8,13.8V13z"/>
<path fill="#FFC107" d="M46,10.5c0,1.4-1.1,2.5-2.5,2.5S41,11.9,41,10.5S42.1,8,43.5,8S46,9.1,46,10.5z M2,10.5
	C2,11.9,3.1,13,4.5,13S7,11.9,7,10.5S5.9,8,4.5,8S2,9.1,2,10.5z"/>
<path fill="#A1887F" d="M36,23.1l-1-0.4V10.9c0.3,0.4,0.7,0.7,1,1.1V23.1z M38,24l1,0.4v-8c-0.3-0.5-0.6-1-1-1.7V24z M36,34.5v-9.2
	l-1-0.4v9.2L36,34.5z M33,21.8V9.1c-0.3-0.2-0.7-0.4-1-0.6v12.8L33,21.8z M38,26.2v9.2l1,0.5v-9.2L38,26.2z M33,24l-1-0.4v9.2l1,0.5
	V24z M12,12.1v11.1l1-0.4V10.9C12.7,11.3,12.3,11.7,12,12.1z M15,21.8l1-0.4V8.5c-0.3,0.2-0.7,0.4-1,0.6V21.8z M13,34.1v-9.2l-1,0.4
	v9.2L13,34.1z M10,26.2l-1,0.4v9.2l1-0.5V26.2z M15,24v9.2l1-0.5v-9.2L15,24z M10,24v-9.2c-0.4,0.6-0.7,1.2-1,1.7v8L10,24z"/>
</svg>
