<?xml version="1.0" encoding="utf-8"?>
<!-- Generator: Adobe Illustrator 19.1.1, SVG Export Plug-In . SVG Version: 6.00 Build 0)  -->
<svg version="1.1"  xmlns="http://www.w3.org/2000/svg" xmlns:xlink="http://www.w3.org/1999/xlink" x="0px" y="0px"
	 viewBox="0 0 48 48" enable-background="new 0 0 48 48" xml:space="preserve">
<path fill="#795548" d="M24,7c-8.4,0-17,9-17,9v23h34V16C41,16,32.4,7,24,7L24,7z"/>
<path fill="#C5CAE9" d="M7,41H2V15h5V41z M46,15h-5v26h5V15z"/>
<path fill="#9FA8DA" d="M1,13h7v0.8C8,14.5,7.5,15,6.8,15H2.2C1.5,15,1,14.5,1,13.8V13z M40,13.8c0,0.7,0.5,1.2,1.2,1.2h4.6
	c0.7,0,1.2-0.5,1.2-1.2V13h-7V13.8z"/>
<path fill="#FFC107" d="M7,10.5C7,11.9,5.9,13,4.5,13S2,11.9,2,10.5S3.1,8,4.5,8S7,9.1,7,10.5z M43.5,8C42.1,8,41,9.1,41,10.5
	s1.1,2.5,2.5,2.5s2.5-1.1,2.5-2.5S44.9,8,43.5,8z"/>
<path fill="#A1887F" d="M22,37h-3V26h3V37z M17,37V26h-3v11H17z M14,24h3V11c-1.1,0.6-2.1,1.2-3,1.8V24z M19,24h3V9.2
	c-1,0.2-2,0.5-3,0.9V24z M36,24h3v-7.2c-0.6-0.6-1.7-1.5-3-2.6V24z M29,10.1c-1-0.4-2-0.7-3-0.9V24h3V10.1z M34,26h-3v11h3V26z
	 M29,26h-3v11h3V26z M36,26v11h3V26H36z M12,26H9v11h3V26z M31,11v13h3V12.8C33.1,12.2,32.1,11.5,31,11z M12,24v-9.7
	c-1.3,1.1-2.4,2-3,2.6V24H12z"/>
</svg>
