<?xml version="1.0" encoding="utf-8"?>
<!-- Generator: Adobe Illustrator 19.1.1, SVG Export Plug-In . SVG Version: 6.00 Build 0)  -->
<svg version="1.1"  xmlns="http://www.w3.org/2000/svg" xmlns:xlink="http://www.w3.org/1999/xlink" x="0px" y="0px"
	 viewBox="0 0 48 48" enable-background="new 0 0 48 48" xml:space="preserve">
<polyline fill="#263238" points="24,47 26,47 29,44 21,44 "/>
<path fill="#9FA8DA" d="M27.2,45h-4.6c-1.5,0-2.7-1.2-2.7-2.7V37h10v5.3C29.9,43.8,28.7,45,27.2,45z"/>
<g>
	<path fill="#5C6BC0" d="M19.9,42.5c0,0.8,0.4,1.5,1,1.9l8.9-1.3c0.1-0.2,0.1-0.5,0.1-0.7v-1.3L19.9,42.5z"/>
	<polygon fill="#5C6BC0" points="19.9,38.6 19.9,40.6 29.9,39 29.9,37 	"/>
</g>
<path fill="#FFC107" d="M35.9,25c-0.5-6.9-5.2-24-11-24s-10.5,17.1-11,24c0,0.4,0,2,2,2h9h9C35.9,27,35.9,25.4,35.9,25z"/>
<g>
	
		<polyline fill="none" stroke="#FFF176" stroke-width="2" stroke-linecap="round" stroke-linejoin="round" stroke-miterlimit="10" points="
		22.9,27 22.9,21 19.9,22 22.9,11 	"/>
	
		<polyline fill="none" stroke="#FFF176" stroke-width="2" stroke-linecap="round" stroke-linejoin="round" stroke-miterlimit="10" points="
		26.9,27 26.9,21 29.9,22 26.9,11 	"/>
</g>
<path fill="#CFD8DC" d="M19.9,37h10c3.3-1.5,5.1-4.6,5.7-8c0.1-0.7,0.3-2-1.7-2c-0.9,0-4.8,0-9,0s-8.1,0-9,0c-2,0-1.9,1.3-1.7,2
	C14.8,32.4,16.6,35.5,19.9,37z"/>
</svg>
