<svg height="512pt" viewBox="0 -76 512 512" width="512pt" xmlns="http://www.w3.org/2000/svg"><path d="m492 0h-472c-11.046875 0-20 8.953125-20 20v320c0 11.046875 8.953125 20 20 20h472c11.046875 0 20-8.953125 20-20v-320c0-11.046875-8.953125-20-20-20zm-20 320h-432v-280h432zm-372-40h160c11.046875 0 20-8.953125 20-20v-160c0-11.046875-8.953125-20-20-20h-160c-11.046875 0-20 8.953125-20 20v160c0 11.046875 8.953125 20 20 20zm20-160h120v120h-120zm221.289062 22.425781c-7.808593-7.8125-7.808593-20.472656 0-28.285156l28.285157-28.28125c7.8125-7.8125 20.472656-7.8125 28.285156 0l28.28125 28.28125c7.8125 7.8125 7.8125 20.476563 0 28.285156-7.808594 7.8125-20.472656 7.808594-28.28125 0l-14.144531-14.140625-14.140625 14.140625c-7.8125 7.8125-20.472657 7.8125-28.285157 0zm0 103.433594c-7.808593-7.8125-7.808593-20.476563 0-28.285156 7.8125-7.808594 20.476563-7.8125 28.285157 0l14.140625 14.140625 14.144531-14.140625c7.808594-7.8125 20.472656-7.8125 28.28125 0 7.8125 7.8125 7.8125 20.472656 0 28.285156l-28.28125 28.28125c-7.8125 7.8125-20.476563 7.8125-28.285156 0zm0 0"/></svg>