<?xml version="1.0" encoding="iso-8859-1"?>
<!-- Generator: Adobe Illustrator 19.0.0, SVG Export Plug-In . SVG Version: 6.00 Build 0)  -->
<svg version="1.1" id="Capa_1" xmlns="http://www.w3.org/2000/svg" xmlns:xlink="http://www.w3.org/1999/xlink" x="0px" y="0px"
	 viewBox="0 0 512 512" style="enable-background:new 0 0 512 512;" xml:space="preserve">
<linearGradient id="SVGID_1_" gradientUnits="userSpaceOnUse" x1="236.9375" y1="387.8675" x2="236.9375" y2="107.2475" gradientTransform="matrix(1.0667 0 0 -1.0667 3.2667 557.5334)">
	<stop  offset="0" style="stop-color:#D63305"/>
	<stop  offset="0.366" style="stop-color:#CF3004"/>
	<stop  offset="0.899" style="stop-color:#BC2602"/>
	<stop  offset="1" style="stop-color:#B72401"/>
</linearGradient>
<circle style="fill:url(#SVGID_1_);" cx="256" cy="256" r="256"/>
<radialGradient id="SVGID_2_" cx="236.9375" cy="282.6875" r="240.22" gradientTransform="matrix(1.0667 0 0 -1.0667 3.2667 557.5334)" gradientUnits="userSpaceOnUse">
	<stop  offset="1.000000e-004" style="stop-color:#D63305;stop-opacity:0"/>
	<stop  offset="1" style="stop-color:#960000"/>
</radialGradient>
<circle style="fill:url(#SVGID_2_);" cx="256" cy="256" r="195.84"/>
<linearGradient id="SVGID_3_" gradientUnits="userSpaceOnUse" x1="323.3003" y1="310.3903" x2="213.7203" y2="419.9703" gradientTransform="matrix(1.0667 0 0 -1.0667 3.2667 557.5334)">
	<stop  offset="1.000000e-004" style="stop-color:#D63305;stop-opacity:0"/>
	<stop  offset="1" style="stop-color:#960000"/>
</linearGradient>
<path style="fill:url(#SVGID_3_);" d="M451.475,267.814L266.022,82.362c-2.213-3.157-5.874-5.226-10.022-5.226
	c-6.759,0-12.24,5.481-12.24,12.24v89.909c0,4.148,2.069,7.808,5.226,10.021l172.097,172.097
	C438.561,334.085,449.433,302.139,451.475,267.814z"/>
<linearGradient id="SVGID_4_" gradientUnits="userSpaceOnUse" x1="361.8749" y1="157.8049" x2="141.4149" y2="378.2749" gradientTransform="matrix(1.0667 0 0 -1.0667 3.2667 557.5334)">
	<stop  offset="1.000000e-004" style="stop-color:#D63305;stop-opacity:0"/>
	<stop  offset="1" style="stop-color:#960000"/>
</linearGradient>
<path style="fill:url(#SVGID_4_);" d="M451.84,256c0-6.071-0.291-12.074-0.832-18.003l-86.83-86.83
	c-15.29-15.772-33.982-28.227-54.886-36.155c-8.003-3.036-16.572,2.893-16.572,11.452v0.002c0,4.159,2.101,7.975,5.474,10.201
	l76.759,77.099c4.661,13.091,7.236,27.164,7.283,41.824c0.029,8.974-0.9,17.739-2.676,26.203
	c-0.303-0.245-162.324-162.085-162.324-162.085c-3.012-4.524-8.905-6.828-14.529-4.694c-57.891,21.956-98.854,78.593-97.388,144.41
	c0.912,40.932,18.334,77.905,45.791,104.574l87.026,87.026c5.885,0.532,11.84,0.819,17.863,0.819
	C364.16,451.84,451.84,364.159,451.84,256z"/>
<path style="fill:#FFFFFF;" d="M292.72,126.463v0.002c0,5.063,3.11,9.625,7.846,11.417c47.565,18.005,81.5,63.954,81.671,117.707
	c0.222,69.205-56.051,126.116-125.254,126.645c-70.061,0.537-127.221-56.295-127.221-126.235c0-53.87,33.911-99.965,81.515-118.058
	c4.79-1.821,8.003-6.354,8.003-11.479l0,0c0-8.56-8.569-14.487-16.573-11.452c-57.891,21.956-98.854,78.593-97.388,144.41
	c1.807,81.091,68.385,146.665,149.493,147.293c83.647,0.647,151.905-67.214,151.905-150.714c0-64.353-40.541-119.414-97.426-140.989
	C301.289,111.975,292.72,117.904,292.72,126.463z"/>
<linearGradient id="SVGID_5_" gradientUnits="userSpaceOnUse" x1="433.6725" y1="86.0325" x2="257.0725" y2="262.6225" gradientTransform="matrix(1.0667 0 0 -1.0667 3.2667 557.5334)">
	<stop  offset="1.000000e-004" style="stop-color:#D63305;stop-opacity:0"/>
	<stop  offset="1" style="stop-color:#960000"/>
</linearGradient>
<path style="fill:url(#SVGID_5_);" d="M451.84,256c0,108.162-87.678,195.84-195.84,195.84c-6.022,0-11.975-0.284-17.86-0.822
	l-86.542-86.532c26.898,25.87,63.306,41.92,103.217,42.233c83.644,0.646,151.903-67.222,151.903-150.719
	c0-41.225-16.637-78.64-43.555-105.871c0.342,0.342,0.686,0.686,1.019,1.038l86.826,86.826
	C451.547,243.926,451.84,249.929,451.84,256z"/>
<path style="fill:#FFFFFF;" d="M256,191.525c-6.759,0-12.24-5.481-12.24-12.24V89.376c0-6.759,5.481-12.24,12.24-12.24
	c6.761,0,12.24,5.481,12.24,12.24v89.909C268.24,186.045,262.759,191.525,256,191.525z"/>
<g>
</g>
<g>
</g>
<g>
</g>
<g>
</g>
<g>
</g>
<g>
</g>
<g>
</g>
<g>
</g>
<g>
</g>
<g>
</g>
<g>
</g>
<g>
</g>
<g>
</g>
<g>
</g>
<g>
</g>
</svg>
