<svg width="300" height="300" xmlns="http://www.w3.org/2000/svg">

 <g>
  <title>background</title>
  <rect fill="none" id="canvas_background" height="302" width="302" y="-1" x="-1"/>
 </g>
 <g>
  <title>Layer 1</title>
  <g id="svg_1">
   <path id="svg_2" d="m298,143.248l-59.517,0c-3.323,-9.592 -12.442,-16.5 -23.151,-16.5c-13.51,0 -24.5,10.99 -24.5,24.5c0,13.51 10.99,24.5 24.5,24.5c10.709,0 19.828,-6.908 23.151,-16.5l59.517,0l0,-16zm-74.168,8c0,4.687 -3.814,8.5 -8.5,8.5c-4.687,0 -8.5,-3.813 -8.5,-8.5c0,-4.686 3.813,-8.5 8.5,-8.5c4.686,0 8.5,3.813 8.5,8.5z"/>
   <path id="svg_3" d="m171.014,52.252l-76.967,76.967c-3.238,-1.582 -6.873,-2.472 -10.713,-2.472c-10.709,0 -19.828,6.908 -23.151,16.5l-60.183,0l0,16l60.183,0c3.323,9.592 12.442,16.5 23.151,16.5c13.51,0 24.5,-10.99 24.5,-24.5c0,-3.841 -0.891,-7.476 -2.472,-10.715l76.966,-76.966l-11.314,-11.314zm-96.18,98.996c0,-4.686 3.813,-8.5 8.5,-8.5s8.5,3.814 8.5,8.5c0,4.687 -3.813,8.5 -8.5,8.5s-8.5,-3.814 -8.5,-8.5z"/>
  </g>
 </g>
</svg>