<svg width="230" height="230" xmlns="http://www.w3.org/2000/svg">

 <metadata>image/svg+xmlOpenclipartAmpermeter2009-04-08T19:22:26Old-style ampermeterhttps://openclipart.org/detail/24306/ampermeter-by-boobalooboobalooampermetercolorelectriclaboratorymeasuringtool</metadata>
 <g>
  <title>background</title>
  <rect fill="none" id="canvas_background" height="232" width="232" y="-1" x="-1"/>
 </g>
 <g>
  <title>Layer 1</title>
  <rect stroke="#000000" fill="#cccccc" x="15.578714" y="77.544594" width="200" height="115" ry="10" rx="10" id="rect2844"/>
  <rect stroke="#000000" fill="#ffeeaa" x="23.708714" y="81.434594" width="183.74" height="102.27" ry="2" rx="2" id="rect2869"/>
  <path stroke="#000000" stroke-width="0.97763" fill="#f2f2f2" d="m191.388714,133.824594l-3.0938,-5c-0.2666,-0.42998 -0.4006,-0.90001 -0.625,-1.3438c-16.523,12.209 -42.639,19.844 -72.094,19.844s-55.539,-7.6349 -72.062,-19.844c-0.2254,0.44623 -0.3882,0.91142 -0.6562,1.3438l-3.0938,5c18.238,12.563 45.413,20.562 75.812,20.562c30.39,0 57.574,-8.0073 75.812,-20.562l0.0008,0z" id="path4349"/>
  <path stroke="null" stroke-width="1px" fill="#000000" d="m144.398714,160.564594l-2.1031,-3.6434c0.73873,0.46937 1.2859,0.29946 1.6419,-0.5084l0.46113,4.1518l0.00001,0.00004l0.00006,-0.00004zm-20.019,-62.235l17.007,55.013c0.71586,2.1207 0.85209,2.8401 -0.63793,2.0081c3.6228,4.9662 4.1864,7.2613 4.5988,8.434c-0.23569,-1.212 -1.1236,-3.7993 -1.1024,-9.6122c-0.77589,1.9285 -1.2845,0.85495 -1.9006,-1.1169l-16.049,-55.3l-1.9158,0.57409l-0.00007,-0.00009z" id="path4359"/>
  <path stroke="#000000" fill="#666666" d="m115.418714,30.484594c-15.8,-0.11 -112.75,6.67 -110.09,36.66l0,32.281l220.56,0l0,-35c0,-18.736 -49.489,-33.938 -110.47,-33.938l0,-0.003z" id="path2864"/>
  <path stroke="null" fill="#666666" d="m196.248714,153.714594l-3.5228,-6.9209s-4.3839,-6.4102 -4.3839,-6.4102l3.5228,6.9209s4.3839,6.4102 4.3839,6.4102m-15.205,7.6018l-2.611,-7.3139s-3.5303,-6.9172 -3.5303,-6.9172l2.611,7.3139s3.5303,6.9172 3.5303,6.9172m-15.859,5.7847l-1.7767,-7.56l-2.7346,-7.2686l1.7767,7.56l2.7346,7.2686m-16.169,4.1079l-1.118,-7.6851l-2.0974,-7.4774l1.116,7.6752l2.0994,7.4873m-16.645,2.5056l-0.30146,-7.7602l-1.2974,-7.6569l0.30146,7.7602l1.2974,7.6569m-16.8,0.8881l0.50969,-7.7493s-0.49161,-7.7504 -0.49161,-7.7504s-0.50967,7.7493 -0.50967,7.7493l0.49159,7.7504m-16.648,-0.72689l1.1571,-7.6793l0.15942,-7.7644l-1.1571,7.6793l-0.15942,7.7644m-16.671,-2.3736l1.967,-7.5128l0.98404,-7.7034l-1.967,7.5128l-0.98404,7.7034m-16.376,-4.0282s2.7795,-7.2554 2.7795,-7.2554s1.8213,-7.5457 1.8213,-7.5457s-2.7785,7.252 -2.7785,7.252l-1.8223,7.5492m-15.746,-5.6919s3.4492,-6.9579 3.4492,-6.9579l2.5254,-7.3439s-3.448,6.9552 -3.448,6.9552s-2.5266,7.3467 -2.5266,7.3467m-15.38,-7.9217s4.5609,-6.2884 4.5609,-6.2884s3.7116,-6.8187 3.7116,-6.8187s-4.5596,6.2864 -4.5596,6.2864s-3.7129,6.8208 -3.7129,6.8208" id="path2875"/>
  <path stroke="null" fill="#666666" d="m188.588714,145.364594s1.8023,3.4304 1.8023,3.4304s2.2329,3.1713 2.2329,3.1713s-1.8023,-3.4304 -1.8023,-3.4304s-2.2329,-3.1713 -2.2329,-3.1713m-2.056,1.156s1.6593,3.5007 1.6593,3.5007s2.1003,3.2593 2.1003,3.2593s-1.6593,-3.5007 -1.6593,-3.5007s-2.1003,-3.2593 -2.1003,-3.2593m-2.2212,1.1873s1.6593,3.5007 1.6593,3.5007s2.1003,3.2594 2.1003,3.2594s-1.6593,-3.5007 -1.6593,-3.5007s-2.1003,-3.2593 -2.1003,-3.2593m-2.1162,1.0573l1.519,3.5628s1.9692,3.3389 1.9692,3.3389l-1.519,-3.5628s-1.9692,-3.3389 -1.9692,-3.3389m-2.2666,1.0996l1.519,3.5628s1.9692,3.3389 1.9692,3.3389l-1.519,-3.5628s-1.9692,-3.3389 -1.9692,-3.3389m-2.1675,0.96294l1.3813,3.6176l1.8398,3.4108l-1.3814,-3.6175l-1.8398,-3.4108m-4.2543,1.4876s1.2461,3.6656 1.2461,3.6656l1.712,3.4757s-1.2461,-3.6656 -1.2461,-3.6656l-1.712,-3.4757m-2.2164,0.87029l1.1131,3.7075l1.5855,3.5342s-1.1134,-3.7079 -1.1134,-3.7079s-1.5852,-3.5338 -1.5852,-3.5338m-2.3752,0.84462l1.1131,3.7075l1.5855,3.5342l-1.1131,-3.7075l-1.5855,-3.5342m-2.2517,0.78666l0.9821,3.7437l1.4603,3.5869l-0.98209,-3.7437l-1.4603,-3.5869m-2.4034,0.76195l0.98209,3.7437l1.4603,3.5869l-0.9821,-3.7437l-1.4603,-3.5869m-5.4167,1.4772l0.85289,3.7748l1.3362,3.6342l-0.85289,-3.7748l-1.3362,-3.6342m-2.3071,0.62984l0.72524,3.801l1.213,3.6765l-0.72523,-3.801l-1.213,-3.6765m-2.4497,0.59937l0.72523,3.8009l1.213,3.6765l-0.72523,-3.8009l-1.213,-3.6765m-2.3285,0.55619l0.59892,3.8226l1.0906,3.7141l-0.59892,-3.8226l-1.0906,-3.7141m-2.4683,0.51918l0.59892,3.8226l1.0906,3.7141l-0.59892,-3.8226l-1.0906,-3.7141m-4.1235,0.83466l0.47373,3.8398l0.96867,3.7472l-0.47373,-3.8398l-0.96867,-3.7472m-2.3613,0.41746s0.34951,3.8529 0.34951,3.8529l0.97023,3.7562l-0.47375,-3.8398l-0.84599,-3.7693m-2.4968,0.36042l0.3495,3.8529l0.84716,3.7761s-0.34949,-3.8529 -0.34949,-3.8529l-0.84717,-3.7761m-2.4969,0.36042s0.34948,3.8529 0.34948,3.8529l0.84719,3.7761l-0.3495,-3.8529l-0.84717,-3.7761m-2.3836,0.27324l0.22602,3.862l0.72588,3.8009s-0.22601,-3.862 -0.22601,-3.862l-0.72589,-3.8009m-2.5071,0.28161s0.226,3.862 0.226,3.862l0.7259,3.8008l-0.22602,-3.862l-0.72588,-3.8009m-4.9056,0.41358l0.10305,3.8671l0.60469,3.8217l-0.10305,-3.8671l-0.60469,-3.8217m-2.3959,0.1501l-0.019,3.8684l0.48342,3.8386l0.019,-3.8684l-0.48341,-3.8386m-2.52,0.1246l-0.019,3.8684l0.48342,3.8386l0.019,-3.8684l-0.48342,-3.8386m-2.3992,0.0919l-0.1415,3.8659l0.36198,3.8518l0.14148,-3.8659s-0.36196,-3.8518 -0.36196,-3.8518m-2.5227,0.0462s-0.14149,3.866 -0.14149,3.866l0.36198,3.8518s0.14149,-3.866 0.14149,-3.866l-0.36198,-3.8518m-4.9241,0.004l-0.26317,3.8597s0.2405,3.8611 0.2405,3.8611s0.26316,-3.8597 0.26316,-3.8597l-0.24049,-3.8611m-2.523,-0.032s-0.26316,3.8597 -0.26316,3.8597l0.24049,3.8611l0.26317,-3.8597s-0.2405,-3.8611 -0.2405,-3.8611m-2.3991,-0.0986s-0.38491,3.8496 -0.38491,3.8496l0.11845,3.8667s0.38491,-3.8496 0.38491,-3.8496l-0.11845,-3.8667m-2.5207,-0.11035s-0.3849,3.8496 -0.3849,3.8496l0.11845,3.8667s0.38491,-3.8496 0.38491,-3.8496l-0.11846,-3.8667m-2.3954,-0.15682l-0.50657,3.8357l-0.004,3.8685l0.50657,-3.8357l0.004,-3.8685m-2.516,-0.18879l-0.50658,3.8357l-0.004,3.8685l0.50656,-3.8357l0.004,-3.8685m-2.3901,-0.21731l-0.62827,3.818l-0.12698,3.8664l0.62827,-3.818l0.12698,-3.8664m-2.5087,-0.26742l-0.62827,3.818l-0.12698,3.8664l0.62826,-3.818s0.12699,-3.8664 0.12699,-3.8664m-2.3826,-0.28012l-0.75016,3.7963s-0.25066,3.8605 -0.25066,3.8605l0.75014,-3.7963l0.25068,-3.8605m-2.4989,-0.34628l-0.75014,3.7963s-0.25067,3.8605 -0.25067,3.8605l0.75013,-3.7963l0.25068,-3.8605m-2.3728,-0.34532l-0.87236,3.7705s-0.37522,3.8506 -0.37522,3.8506l0.87236,-3.7705s0.37522,-3.8506 0.37522,-3.8506m-2.4864,-0.42552l-0.87234,3.7705s-0.37521,3.8506 -0.37521,3.8506l0.87234,-3.7705s0.37521,-3.8506 0.37521,-3.8506m-4.8316,-0.91827l-0.99505,3.7405l-0.50081,3.8365l0.99506,-3.7404l0.5008,-3.8365m-2.345,-0.48344l-1.1184,3.706l-0.62762,3.8181l1.1191,-3.7094l0.62693,-3.8147m-2.4531,-0.5855l-1.1184,3.706l-0.62761,3.8181l1.1184,-3.706l0.62761,-3.8181m-2.3262,-0.55668s-1.2427,3.6669 -1.2427,3.6669l-0.7559,3.7951l1.2441,-3.6727l0.75446,-3.7893m-2.432,-0.6665s-1.2427,3.6669 -1.2427,3.6669l-0.7559,3.7951l1.2426,-3.6669l0.75591,-3.7952m-4.7114,-1.3813l-1.3679,3.6227l-0.88585,3.7674l1.3679,-3.6227l0.88585,-3.7674m-2.2767,-0.71247s-1.4944,3.5732 -1.4944,3.5732s-1.0177,3.7344 -1.0177,3.7344s1.4953,-3.5761 1.4953,-3.5761l1.0169,-3.7315m-2.3799,-0.83116s-1.4944,3.5732 -1.4944,3.5732s-1.0177,3.7344 -1.0177,3.7344s1.4944,-3.5732 1.4944,-3.5732l1.0178,-3.7344m-2.2447,-0.79548l-1.6224,3.5178l-1.1518,3.6959l1.6224,-3.5178l1.1518,-3.6959m-2.3484,-0.91509s-1.6224,3.5179 -1.6224,3.5179l-1.1518,3.6959s1.6224,-3.5179 1.6224,-3.5179l1.1518,-3.6959m-2.207,-0.88224s-1.7518,3.4562 -1.7518,3.4562l-1.2882,3.6513s1.7518,-3.4562 1.7518,-3.4562l1.2882,-3.6513m-4.4754,-1.9733s-1.883,3.3876 -1.883,3.3876l-1.4272,3.6001s1.883,-3.3876 1.883,-3.3876l1.4272,-3.6001m-2.2728,-1.0868s-1.883,3.3876 -1.883,3.3876l-1.4272,3.6001s1.883,-3.3876 1.883,-3.3876l1.4272,-3.6001m-2.1105,-1.068l-2.0161,3.3114l-1.569,3.5415l2.0161,-3.3114l1.569,-3.5415m-2.2279,-1.1747s-2.016,3.3114 -2.016,3.3114l-1.569,3.5415s2.016,-3.3114 2.016,-3.3114l1.569,-3.5415m-2.0495,-1.1675s-2.151,3.2268 -2.151,3.2268l-1.7138,3.4749s2.151,-3.2268 2.151,-3.2268l1.7138,-3.4749" id="path8138"/>
  <path stroke="null" stroke-width="1px" d="m-14.391286,134.374594" id="path4304"/>
  <g stroke="null" fill="#000000" id="text5203">
   <path stroke="null" d="m129.408714,133.734594l0,0.75555l-10.222,0l0,-0.75555c1.0666,-0.0296 1.8,-0.14074 2.2,-0.33333c0.4148,-0.1926 0.62221,-0.54074 0.62223,-1.0444c-0.00002,-0.62222 -0.25188,-1.5111 -0.75556,-2.6667l-1.6444,-3.8444l-10.489,0l-1.8222,4.6889c-0.20741,0.47408 -0.31111,0.99259 -0.31111,1.5556c0,0.56297 0.21481,0.97778 0.64445,1.2444c0.42962,0.26667 1.1185,0.4 2.0667,0.4l0,0.75555l-7.9556,0l0,-0.75555c0.69629,-0.0296 1.2444,-0.18519 1.6444,-0.46667c0.4,-0.29629 0.84445,-0.88148 1.3333,-1.7556c0.48888,-0.87407 1.1556,-2.3185 2,-4.3333l8.3111,-19.644l0.8,0l9.9778,22.711c0.68145,1.4815 1.2222,2.4148 1.6222,2.8c0.41479,0.38519 1.074,0.61482 1.9778,0.68889m-19.6,-9.5333l9.2222,0l-4.6444,-11l-4.5778,11" id="path5208"/>
  </g>
  <g stroke="null" fill="#4d4d4d" id="g5318">
   <g stroke="null" fill="#4d4d4d" transform="matrix(0.86603,0.3989511728286743,-0.5,0.6910073684096336,0.53509,58.4304853646064) " id="text5214">
    <path stroke="null" fill="#4d4d4d" d="m99.934858,107.413218c-0.50121,0 -1.0024,0.21264 -1.329,0.56956c-0.44806,0.48603 -0.73664,1.3062 -0.73664,2.096c0,1.6024 0.84296,2.7035 2.0656,2.7035c1.2227,0 2.0808,-1.0936 2.0808,-2.6504c0,-1.6176 -0.84296,-2.7187 -2.0808,-2.7187m0.0304,0.36452c0.32655,0 0.62273,0.15188 0.82777,0.44046c0.2582,0.34174 0.40249,1.0328 0.40249,1.8606c0,0.62272 -0.0835,1.1923 -0.24301,1.5948c-0.16707,0.44806 -0.56957,0.74423 -1.0024,0.74423c-0.48603,0 -0.90371,-0.34174 -1.0784,-0.88852c-0.12151,-0.3873 -0.18227,-0.85815 -0.18227,-1.367c0,-0.56956 0.12151,-1.2606 0.28858,-1.6859c0.17467,-0.43287 0.54679,-0.69867 0.98725,-0.69867" id="path5356"/>
   </g>
   <g stroke="null" fill="#4d4d4d" transform="matrix(0.9182806191723932,0.3159136163333135,-0.3959301762335958,0.732698260009335,-123.01064654713409,94.46228006100912) " id="text5230">
    <path stroke="null" fill="#4d4d4d" d="m201.447594,28.443964l-0.28858,0c-0.1367,0.23542 -0.22783,0.2734 -0.61513,0.2734l-2.2935,0l0,2.7263l0.32656,0.0759c0.37971,-0.524 0.67588,-0.69867 1.1923,-0.69867c0.80498,0 1.3062,0.53919 1.3062,1.3897c0,0.87334 -0.54678,1.4353 -1.3897,1.4353c-0.49362,0 -0.90371,-0.21264 -0.90371,-0.47084l0.008,-0.0835c0.0683,-0.22023 0.0683,-0.22023 0.0683,-0.28098c0,-0.22783 -0.20504,-0.42528 -0.44046,-0.42528c-0.25821,0 -0.46325,0.22023 -0.46325,0.48603c0,0.63032 0.80499,1.1164 1.8378,1.1164c1.2682,0 2.1416,-0.77461 2.1416,-1.891c0,-1.0176 -0.78221,-1.7163 -1.9137,-1.7163c-0.50882,0 -0.85056,0.12151 -1.2986,0.47843l0,-1.5188l2.5972,0l0.1291,-0.89612" id="path5359"/>
   </g>
   <g stroke="null" fill="#4d4d4d" transform="matrix(0.9638725943805608,0.21253222271205655,-0.26636370211064203,0.7690762039710837,-79.5149636575626,86.6983128807222) " id="text5234">
    <path stroke="null" fill="#4d4d4d" d="m169.643992,77.646903l-0.24301,0c-0.49363,0.11392 -0.65311,0.14429 -1.4125,0.23542l0,0.22783l0.30377,0.0152c0.55438,0.0228 0.63032,0.11391 0.63032,0.71385l0,2.9086c0,0.41008 -0.0228,0.53159 -0.0987,0.60753c-0.12151,0.12151 -0.34934,0.20505 -0.59235,0.22024l-0.25061,0.0152l0,0.22783l2.5896,0l0,-0.22783l-0.24302,-0.0152c-0.57716,-0.038 -0.68348,-0.15948 -0.68348,-0.81258l0,-4.1161" id="path5362"/>
    <path stroke="null" fill="#4d4d4d" d="m173.843992,77.546903c-0.50121,0 -1.0024,0.21264 -1.329,0.56956c-0.44806,0.48603 -0.73664,1.3062 -0.73664,2.096c0,1.6024 0.84296,2.7035 2.0656,2.7035c1.2227,0 2.0808,-1.0936 2.0808,-2.6504c0,-1.6176 -0.84296,-2.7187 -2.0808,-2.7187m0.0304,0.36452c0.32655,0 0.62273,0.15189 0.82777,0.44047c0.2582,0.34173 0.40249,1.0328 0.40249,1.8606c0,0.62272 -0.0835,1.1923 -0.24301,1.5948c-0.16707,0.44806 -0.56957,0.74423 -1.0024,0.74423c-0.48603,0 -0.90371,-0.34174 -1.0784,-0.88852c-0.1215,-0.3873 -0.18226,-0.85815 -0.18226,-1.367c0,-0.56956 0.12151,-1.2606 0.28858,-1.6859c0.17467,-0.43287 0.54679,-0.69867 0.98725,-0.69867" id="path5364"/>
   </g>
   <g stroke="null" fill="#4d4d4d" transform="matrix(0.9845490570204657,0.1397198646197255,-0.17510897841090797,0.7855740020113603,-50.84659539885331,78.71930450758498) " id="text5252">
    <path stroke="null" fill="#4d4d4d" d="m152.060607,109.035569l-0.24301,0c-0.49363,0.11391 -0.65311,0.14429 -1.4125,0.23542l0,0.22783l0.30377,0.0152c0.55438,0.0228 0.63032,0.11391 0.63032,0.71385l0,2.9086c0,0.41009 -0.0228,0.5316 -0.0987,0.60754c-0.12151,0.12151 -0.34934,0.20504 -0.59235,0.22023l-0.25061,0.0152l0,0.22783l2.5896,0l0,-0.22783l-0.24302,-0.0152c-0.57716,-0.038 -0.68348,-0.15948 -0.68348,-0.81258l0,-4.1161" id="path5367"/>
    <path stroke="null" fill="#4d4d4d" d="m157.840607,108.765569l-0.28858,0c-0.1367,0.23542 -0.22783,0.27339 -0.61513,0.27339l-2.2934,0l0,2.7263l0.32655,0.0759c0.37971,-0.524 0.67588,-0.69866 1.1923,-0.69866c0.80498,0 1.3062,0.53919 1.3062,1.3897c0,0.87333 -0.54678,1.4353 -1.3897,1.4353c-0.49362,0 -0.90371,-0.21264 -0.90371,-0.47084l0.008,-0.0835c0.0683,-0.22024 0.0683,-0.22024 0.0683,-0.28099c0,-0.22783 -0.20504,-0.42528 -0.44046,-0.42528c-0.2582,0 -0.46325,0.22024 -0.46325,0.48603c0,0.63032 0.80499,1.1164 1.8378,1.1164c1.2682,0 2.1416,-0.77461 2.1416,-1.891c0,-1.0176 -0.78221,-1.7163 -1.9137,-1.7163c-0.50881,0 -0.85055,0.12151 -1.2986,0.47844l0,-1.5188l2.5972,0l0.1291,-0.89612" id="path5369"/>
   </g>
   <g stroke="null" fill="#4d4d4d" transform="matrix(0.9970479295707751,0.06126428130255554,-0.07678167840462131,0.7955468817373245,-21.637891569778503,67.97435434488372) " id="text5258">
    <path stroke="null" fill="#4d4d4d" d="m131.21216,144.04522l-0.28858,-0.0759l-0.0759,0.17467c-0.2582,0.59234 -0.43287,0.69866 -1.1239,0.69866l-1.7239,0c0.90371,-0.56956 1.1847,-0.76701 1.5568,-1.0784c0.88853,-0.74424 1.329,-1.4429 1.329,-2.0884c0,-0.86574 -0.77461,-1.4809 -1.8682,-1.4809c-0.99484,0 -1.8302,0.6531 -1.8302,1.4277c0,0.36452 0.22783,0.63791 0.51641,0.63791c0.22782,0 0.43287,-0.19745 0.43287,-0.41009c0,-0.0759 -0.038,-0.17466 -0.0911,-0.24301c-0.1367,-0.16707 -0.15948,-0.22023 -0.15948,-0.34933c0,-0.36453 0.51641,-0.69867 1.0708,-0.69867c0.62273,0 1.0328,0.41009 1.0328,1.01c0,0.57716 -0.28098,1.1543 -0.9113,1.8606c-0.50122,0.55438 -0.96447,0.9189 -1.9213,1.5036l0,0.5316l3.6908,0l0.36452,-1.4201" id="path5372"/>
    <path stroke="null" fill="#4d4d4d" d="m133.91216,140.19522c-0.50122,0 -1.0024,0.21264 -1.329,0.56956c-0.44806,0.48603 -0.73664,1.3062 -0.73664,2.096c0,1.6024 0.84296,2.7035 2.0656,2.7035c1.2227,0 2.0808,-1.0936 2.0808,-2.6504c0,-1.6176 -0.84296,-2.7187 -2.0808,-2.7187m0.0304,0.36452c0.32655,0 0.62273,0.15188 0.82777,0.44046c0.2582,0.34174 0.40249,1.0328 0.40249,1.8606c0,0.62273 -0.0835,1.1923 -0.24301,1.5948c-0.16707,0.44806 -0.56957,0.74423 -1.0024,0.74423c-0.48603,0 -0.90371,-0.34174 -1.0784,-0.88852c-0.12151,-0.38731 -0.18227,-0.85815 -0.18227,-1.367c0,-0.56956 0.12151,-1.2606 0.28858,-1.6859c0.17467,-0.43287 0.54679,-0.69867 0.98725,-0.69867" id="path5374"/>
   </g>
   <g stroke="null" fill="#4d4d4d" transform="matrix(0.9998965300827916,-0.011477850296806176,0.01438503140049074,0.797819786767703,3.9409704186529098,56.09272983620306) " id="text5266">
    <path stroke="null" fill="#4d4d4d" d="m109.395919,170.914411l-0.28858,-0.0759l-0.0759,0.17466c-0.2582,0.59235 -0.43287,0.69867 -1.1239,0.69867l-1.7239,0c0.90371,-0.56957 1.1847,-0.76702 1.5568,-1.0784c0.88853,-0.74423 1.329,-1.4429 1.329,-2.0884c0,-0.86573 -0.77461,-1.4809 -1.8682,-1.4809c-0.99485,0 -1.8302,0.65311 -1.8302,1.4277c0,0.36453 0.22783,0.63792 0.51641,0.63792c0.22782,0 0.43287,-0.19745 0.43287,-0.41009c0,-0.0759 -0.038,-0.17467 -0.0911,-0.24301c-0.1367,-0.16708 -0.15948,-0.22024 -0.15948,-0.34934c0,-0.36452 0.5164,-0.69866 1.0708,-0.69866c0.62273,0 1.0328,0.41008 1.0328,1.01c0,0.57715 -0.28098,1.1543 -0.9113,1.8606c-0.50122,0.55437 -0.96447,0.9189 -1.9213,1.5036l0,0.5316l3.6908,0l0.36452,-1.4201" id="path5377"/>
    <path stroke="null" fill="#4d4d4d" d="m113.675919,166.884411l-0.28858,0c-0.1367,0.23542 -0.22783,0.27339 -0.61513,0.27339l-2.2934,0l0,2.7263l0.32655,0.0759c0.37971,-0.524 0.67588,-0.69867 1.1923,-0.69867c0.80498,0 1.3062,0.53919 1.3062,1.3897c0,0.87334 -0.54678,1.4353 -1.3897,1.4353c-0.49362,0 -0.90371,-0.21264 -0.90371,-0.47084l0.008,-0.0835c0.0683,-0.22023 0.0683,-0.22023 0.0683,-0.28098c0,-0.22783 -0.20504,-0.42528 -0.44046,-0.42528c-0.2582,0 -0.46325,0.22023 -0.46325,0.48603c0,0.63032 0.80499,1.1164 1.8378,1.1164c1.2682,0 2.1416,-0.77461 2.1416,-1.891c0,-1.0176 -0.78221,-1.7163 -1.9137,-1.7163c-0.50881,0 -0.85055,0.12151 -1.2986,0.47844l0,-1.5188l2.5972,0l0.1291,-0.89611" id="path5379"/>
   </g>
   <g stroke="null" fill="#4d4d4d" transform="matrix(0.99593,-0.07187344749212266,0.090078,0.7946548831105232,0,58.08892730750085) " id="text5274">
    <path stroke="null" fill="#4d4d4d" d="m115.454064,176.196271c0.31136,-0.0304 0.44046,-0.038 0.53159,-0.038c0.34174,0 0.70627,0.10632 0.91131,0.2658c0.24301,0.18986 0.3949,0.56197 0.3949,0.95687c0,0.77461 -0.48603,1.2303 -1.2986,1.2303c-0.33415,0 -0.62273,-0.0683 -0.83536,-0.20504c-0.14429,-0.0911 -0.25821,-0.2582 -0.25821,-0.37971c0,-0.0228 0.008,-0.0456 0.0152,-0.0835c0.0532,-0.16707 0.0532,-0.16707 0.0532,-0.2582c0,-0.24301 -0.17467,-0.42527 -0.42528,-0.42527c-0.2582,0 -0.46324,0.23542 -0.46324,0.524c0,0.28098 0.18226,0.56956 0.47843,0.7822c0.37971,0.2658 0.82777,0.3873 1.4049,0.3873c1.2758,0 2.1871,-0.66069 2.1871,-1.5872c0,-0.44805 -0.23542,-0.85055 -0.62272,-1.0784c-0.24302,-0.14429 -0.44047,-0.21264 -0.90371,-0.30377c0.43287,-0.0987 0.63032,-0.18226 0.82777,-0.33415c0.26579,-0.21264 0.43287,-0.524 0.43287,-0.82777c0,-0.71385 -0.76702,-1.2378 -1.815,-1.2378c-0.45565,0 -0.83536,0.10632 -1.1391,0.31136c-0.34933,0.23542 -0.56957,0.58475 -0.56957,0.9189c0,0.28098 0.18986,0.48603 0.44047,0.48603c0.22782,0 0.41768,-0.16707 0.41768,-0.36452c0,-0.0532 -0.0152,-0.11392 -0.038,-0.18226c-0.0911,-0.20505 -0.0911,-0.20505 -0.0911,-0.2658c0,-0.31136 0.41768,-0.56197 0.93409,-0.56197c0.63031,0 1.0404,0.37211 1.0404,0.94927c0,0.25821 -0.11391,0.54679 -0.28098,0.69108c-0.19745,0.18226 -0.57716,0.30376 -0.94928,0.30376c-0.0607,0 -0.18986,-0.008 -0.37971,-0.0152l0,0.34174" id="path5382"/>
    <path stroke="null" fill="#4d4d4d" d="m120.844064,173.586271c-0.50122,0 -1.0024,0.21264 -1.329,0.56956c-0.44806,0.48603 -0.73664,1.3062 -0.73664,2.096c0,1.6024 0.84296,2.7035 2.0656,2.7035c1.2227,0 2.0808,-1.0936 2.0808,-2.6504c0,-1.6176 -0.84296,-2.7187 -2.0808,-2.7187m0.0304,0.36452c0.32655,0 0.62273,0.15188 0.82777,0.44046c0.2582,0.34174 0.4025,1.0328 0.4025,1.8606c0,0.62272 -0.0835,1.1923 -0.24302,1.5948c-0.16707,0.44806 -0.56957,0.74423 -1.0024,0.74423c-0.48602,0 -0.90371,-0.34174 -1.0784,-0.88852c-0.12151,-0.3873 -0.18226,-0.85815 -0.18226,-1.367c0,-0.56956 0.1215,-1.2606 0.28858,-1.6859c0.17466,-0.43287 0.54678,-0.69867 0.98724,-0.69867" id="path5384"/>
   </g>
   <g stroke="null" fill="#4d4d4d" transform="matrix(0.9316912324225316,-0.28983899895835624,0.3632512180667592,0.743398619778324,88.22187486311321,-6.7448021679414865) " id="text5282">
    <path stroke="null" fill="#4d4d4d" d="m2.769319,250.507705l-0.72145,0l-0.13669,0.18226l-1.1619,1.6783l-1.1923,1.5872l0.11392,0.31136l2.377,0l0,0.31896c0,0.34174 -0.0152,0.49363 -0.0683,0.60754c-0.0608,0.13669 -0.22783,0.22782 -0.41769,0.24301l-0.2506,0.0152l0,0.22783l2.1947,0l0,-0.22783l-0.25061,-0.0152c-0.18985,-0.0152 -0.34933,-0.10632 -0.41768,-0.24301c-0.0456,-0.11391 -0.0684,-0.27339 -0.0684,-0.60754l0,-0.31896l0.98725,0l0.16707,-0.43287l-1.1543,0l0,-3.3263m-0.72145,3.3263l-1.9517,0c0.038,-0.0607 0.0759,-0.11391 0.12151,-0.16707l0.47084,-0.63791l0.67589,-0.9265l0.68347,-0.94927l0,2.6808" id="path5387"/>
    <path stroke="null" fill="#4d4d4d" d="m8.019319,250.227705l-0.28858,0c-0.13669,0.23542 -0.22783,0.27339 -0.61513,0.27339l-2.2934,0l0,2.7263l0.32655,0.0759c0.37971,-0.524 0.67589,-0.69866 1.1923,-0.69866c0.80499,0 1.3062,0.53919 1.3062,1.3897c0,0.87333 -0.54678,1.4353 -1.3897,1.4353c-0.49362,0 -0.90371,-0.21263 -0.90371,-0.47084l0.008,-0.0835c0.0684,-0.22024 0.0684,-0.22024 0.0684,-0.28099c0,-0.22783 -0.20505,-0.42528 -0.44047,-0.42528c-0.2582,0 -0.46325,0.22024 -0.46325,0.48603c0,0.63032 0.80499,1.1164 1.8378,1.1164c1.2682,0 2.1416,-0.77461 2.1416,-1.891c0,-1.0176 -0.7822,-1.7163 -1.9137,-1.7163c-0.50881,0 -0.85055,0.12151 -1.2986,0.47844l0,-1.5188l2.5972,0l0.1291,-0.89612" id="path5389"/>
   </g>
   <g stroke="null" fill="#4d4d4d" transform="matrix(0.9628615817474117,-0.21543004923096512,0.2699955081012877,0.7682695146196047,67.91726616983132,12.893385574493777) " id="text5290">
    <path stroke="null" fill="#4d4d4d" d="m36.277734,231.648222l-0.72145,0l-0.1367,0.18226l-1.1619,1.6783l-1.1923,1.5872l0.11391,0.31136l2.377,0l0,0.31896c0,0.34174 -0.0152,0.49362 -0.0684,0.60754c-0.0607,0.13669 -0.22783,0.22782 -0.41768,0.24301l-0.25061,0.0152l0,0.22783l2.1947,0l0,-0.22783l-0.25061,-0.0152c-0.18986,-0.0152 -0.34933,-0.10632 -0.41768,-0.24301c-0.0456,-0.11392 -0.0683,-0.2734 -0.0683,-0.60754l0,-0.31896l0.98725,0l0.16707,-0.43287l-1.1543,0l0,-3.3263m-0.72145,3.3263l-1.9517,0c0.038,-0.0607 0.0759,-0.11391 0.1215,-0.16707l0.47085,-0.63791l0.67588,-0.9265l0.68348,-0.94927l0,2.6808" id="path5392"/>
    <path stroke="null" fill="#4d4d4d" d="m39.947734,231.548222c-0.50122,0 -1.0024,0.21264 -1.329,0.56957c-0.44805,0.48603 -0.73663,1.3062 -0.73663,2.096c0,1.6024 0.84295,2.7035 2.0656,2.7035c1.2227,0 2.0808,-1.0936 2.0808,-2.6504c0,-1.6176 -0.84295,-2.7187 -2.0808,-2.7187m0.0304,0.36453c0.32655,0 0.62272,0.15188 0.82777,0.44046c0.2582,0.34174 0.40249,1.0328 0.40249,1.8606c0,0.62273 -0.0835,1.1923 -0.24302,1.5948c-0.16707,0.44805 -0.56956,0.74423 -1.0024,0.74423c-0.48603,0 -0.90371,-0.34174 -1.0784,-0.88852c-0.12151,-0.38731 -0.18226,-0.85815 -0.18226,-1.367c0,-0.56957 0.12151,-1.2606 0.28858,-1.6859c0.17467,-0.43287 0.54678,-0.69866 0.98725,-0.69866" id="path5394"/>
   </g>
   <g stroke="null" fill="#4d4d4d" transform="matrix(0.8934733104254344,-0.35835094269769185,0.4491162917969189,0.7129044501706905,105.28083565945468,-26.916596478119914) " id="text5298">
    <path stroke="null" fill="#4d4d4d" d="m-30.102074,264.773087l-0.28858,0c-0.1367,0.23542 -0.22783,0.27339 -0.61514,0.27339l-2.2934,0l0,2.7263l0.32655,0.0759c0.37971,-0.524 0.67589,-0.69866 1.1923,-0.69866c0.80498,0 1.3062,0.53919 1.3062,1.3897c0,0.87333 -0.54678,1.4353 -1.3897,1.4353c-0.49362,0 -0.90371,-0.21264 -0.90371,-0.47084l0.008,-0.0835c0.0683,-0.22024 0.0683,-0.22024 0.0683,-0.28099c0,-0.22783 -0.20504,-0.42528 -0.44046,-0.42528c-0.25821,0 -0.46325,0.22024 -0.46325,0.48603c0,0.63032 0.80499,1.1164 1.8378,1.1164c1.2682,0 2.1416,-0.77461 2.1416,-1.891c0,-1.0176 -0.78221,-1.7163 -1.9138,-1.7163c-0.50881,0 -0.85055,0.12151 -1.2986,0.47844l0,-1.5188l2.5972,0l0.12911,-0.89612" id="path5397"/>
    <path stroke="null" fill="#4d4d4d" d="m-26.982074,264.953087c-0.50121,0 -1.0024,0.21263 -1.329,0.56956c-0.44806,0.48603 -0.73664,1.3062 -0.73664,2.096c0,1.6024 0.84296,2.7035 2.0656,2.7035c1.2227,0 2.0808,-1.0936 2.0808,-2.6504c0,-1.6176 -0.84296,-2.7187 -2.0808,-2.7187m0.0304,0.36452c0.32655,0 0.62273,0.15188 0.82777,0.44046c0.2582,0.34174 0.40249,1.0328 0.40249,1.8606c0,0.62273 -0.0835,1.1923 -0.24301,1.5948c-0.16707,0.44806 -0.56957,0.74423 -1.0024,0.74423c-0.48603,0 -0.90371,-0.34174 -1.0784,-0.88852c-0.1215,-0.38731 -0.18226,-0.85815 -0.18226,-1.367c0,-0.56957 0.12151,-1.2606 0.28858,-1.6859c0.17467,-0.43287 0.54679,-0.69867 0.98725,-0.69867" id="path5399"/>
   </g>
   <g stroke="null" fill="#4d4d4d" transform="matrix(0.9840996520190938,-0.14172119209924802,0.17761721452578458,0.7852154207066154,46.14638745920635,30.230243877280486) " id="text5306">
    <path stroke="null" fill="#4d4d4d" d="m64.557524,212.865089c0.31136,-0.0304 0.44046,-0.038 0.53159,-0.038c0.34174,0 0.70626,0.10631 0.91131,0.26579c0.24301,0.18986 0.3949,0.56197 0.3949,0.95687c0,0.77461 -0.48603,1.2303 -1.2986,1.2303c-0.33415,0 -0.62273,-0.0684 -0.83537,-0.20505c-0.14429,-0.0911 -0.2582,-0.2582 -0.2582,-0.37971c0,-0.0228 0.008,-0.0456 0.0152,-0.0835c0.0532,-0.16707 0.0532,-0.16707 0.0532,-0.2582c0,-0.24301 -0.17467,-0.42527 -0.42528,-0.42527c-0.2582,0 -0.46324,0.23542 -0.46324,0.524c0,0.28098 0.18226,0.56956 0.47843,0.7822c0.37971,0.2658 0.82777,0.3873 1.4049,0.3873c1.2758,0 2.1871,-0.66069 2.1871,-1.5872c0,-0.44805 -0.23542,-0.85055 -0.62272,-1.0784c-0.24302,-0.14429 -0.44047,-0.21264 -0.90371,-0.30377c0.43287,-0.0987 0.63032,-0.18226 0.82777,-0.33415c0.26579,-0.21263 0.43287,-0.524 0.43287,-0.82777c0,-0.71385 -0.76702,-1.2378 -1.815,-1.2378c-0.45565,0 -0.83536,0.10632 -1.1391,0.31136c-0.34934,0.23542 -0.56957,0.58476 -0.56957,0.9189c0,0.28099 0.18986,0.48603 0.44047,0.48603c0.22782,0 0.41768,-0.16707 0.41768,-0.36452c0,-0.0532 -0.0152,-0.11392 -0.038,-0.18226c-0.0911,-0.20505 -0.0911,-0.20505 -0.0911,-0.2658c0,-0.31136 0.41768,-0.56197 0.93408,-0.56197c0.63032,0 1.0404,0.37211 1.0404,0.94927c0,0.25821 -0.11391,0.54679 -0.28098,0.69108c-0.19745,0.18226 -0.57717,0.30377 -0.94928,0.30377c-0.0607,0 -0.18986,-0.008 -0.37971,-0.0152l0,0.34174" id="path5402"/>
    <path stroke="null" fill="#4d4d4d" d="m71.527524,210.075089l-0.28858,0c-0.13669,0.23542 -0.22783,0.27339 -0.61513,0.27339l-2.2934,0l0,2.7263l0.32655,0.076c0.37971,-0.524 0.67588,-0.69867 1.1923,-0.69867c0.80499,0 1.3062,0.53919 1.3062,1.3897c0,0.87333 -0.54678,1.4353 -1.3897,1.4353c-0.49362,0 -0.90371,-0.21264 -0.90371,-0.47085l0.008,-0.0835c0.0684,-0.22023 0.0684,-0.22023 0.0684,-0.28099c0,-0.22782 -0.20505,-0.42527 -0.44047,-0.42527c-0.2582,0 -0.46325,0.22023 -0.46325,0.48603c0,0.63031 0.80499,1.1163 1.8378,1.1163c1.2682,0 2.1416,-0.77461 2.1416,-1.891c0,-1.0176 -0.7822,-1.7163 -1.9137,-1.7163c-0.50881,0 -0.85055,0.12151 -1.2986,0.47844l0,-1.5188l2.5972,0l0.1291,-0.89612" id="path5404"/>
   </g>
  </g>
 </g>
</svg>