<?xml version="1.0" encoding="iso-8859-1"?>
<!-- Generator: Adobe Illustrator 19.0.0, SVG Export Plug-In . SVG Version: 6.00 Build 0)  -->
<svg version="1.1" id="Capa_1" xmlns="http://www.w3.org/2000/svg" xmlns:xlink="http://www.w3.org/1999/xlink" x="0px" y="0px"
	 viewBox="0 0 512 512" style="enable-background:new 0 0 512 512;" xml:space="preserve">
<path style="fill:#B1EAD4;" d="M440.711,379.376c0,0.951-0.022,1.896-0.036,2.843h-53.629h-18.523H143.479h-18.523h-53.63
	c-0.015-0.947-0.036-1.893-0.036-2.843c0-100.487,82.698-181.948,184.711-181.948S440.711,278.888,440.711,379.376z"/>
<path style="fill:#7CC3AC;" d="M23.595,382.219c-0.019-1.192-0.046-2.382-0.046-3.578c0-126.459,104.072-228.975,232.451-228.975
	s232.451,102.516,232.451,228.975c0,1.196-0.027,2.386-0.046,3.578h-90.801c0.03-1.189,0.046-2.382,0.046-3.578
	c0-77.061-63.419-139.532-141.65-139.532s-141.65,62.47-141.65,139.532c0,1.196,0.016,2.389,0.046,3.578H23.595z"/>
<path style="fill:#61AE9F;" d="M488.451,378.641c0,1.196-0.027,2.386-0.046,3.578h-19.092c0.017-1.094,0.042-2.186,0.042-3.284
	c0-116.071-95.522-210.164-213.355-210.164S42.645,262.864,42.645,378.935c0,1.098,0.025,2.19,0.042,3.284H23.595
	c-0.019-1.192-0.046-2.382-0.046-3.578c0-126.459,104.072-228.975,232.451-228.975S488.451,252.182,488.451,378.641z"/>
<path style="fill:#FFB05F;" d="M381.684,124.454c2.279,1.094,3.226,3.8,2.093,6.034l-68.154,134.27
	c-1.103,2.174-3.763,3.073-5.995,2.037c-16.27-7.556-34.447-11.784-53.628-11.784s-37.358,4.227-53.628,11.784
	c-2.232,1.037-4.891,0.137-5.995-2.037l-68.154-134.27c-1.134-2.234-0.186-4.94,2.093-6.034C168.282,106.232,210.926,96,256,96
	S343.718,106.232,381.684,124.454z"/>
<g>
	<path style="fill:#FF904E;" d="M383.776,130.488l-68.154,134.27c-1.103,2.174-3.763,3.073-5.995,2.037
		c-4.379-2.034-8.901-3.815-13.54-5.346L368.6,118.591c4.417,1.854,8.783,3.801,13.083,5.864
		C383.963,125.548,384.91,128.254,383.776,130.488z"/>
	<path style="fill:#FF904E;" d="M256,149.666c37.954,0,73.781,8.965,105.426,24.855l-40.618,80.021
		c-19.421-9.861-41.453-15.432-64.808-15.432s-45.387,5.571-64.808,15.432l-40.618-80.021
		C182.219,158.631,218.046,149.666,256,149.666z"/>
</g>
<path style="fill:#FF733D;" d="M344.152,166.757c5.879,2.369,11.651,4.94,17.274,7.764l-25.051,49.353l-15.567,30.668
	c-5.606-2.847-11.434-5.326-17.446-7.425L344.152,166.757z"/>
<path style="fill:#43545C;" d="M355.853,214.408l-66.729,175.476c-2.001,5.262-8.162,7.696-13.305,5.257l-42.082-19.955
	c-5.138-2.436-7.044-8.686-4.119-13.504l97.632-160.836c4.228-6.966,13.16-9.604,20.588-6.082l0,0
	C355.269,198.288,358.744,206.805,355.853,214.408z"/>
<path style="fill:#4A7273;" d="M233.737,375.186c-5.138-2.437-7.044-8.686-4.119-13.504l97.632-160.836
	c4.228-6.966,13.16-9.604,20.588-6.082l0,0c0.944,0.448,1.822,0.977,2.633,1.573L261.349,388.28L233.737,375.186z"/>
<path style="fill:#43545C;" d="M289.935,382.573C289.935,401.034,274.742,416,256,416s-33.935-14.966-33.935-33.427
	s15.193-33.427,33.935-33.427S289.935,364.111,289.935,382.573z"/>
<path style="fill:#61AE9F;" d="M271.168,382.573c0,8.252-6.791,14.941-15.168,14.941c-8.377,0-15.168-6.689-15.168-14.941
	s6.791-14.941,15.168-14.941C264.377,367.631,271.168,374.321,271.168,382.573z"/>
<path d="M204.828,100.381c-0.617-4.096,2.203-7.916,6.299-8.533C225.869,89.626,240.967,88.5,256,88.5
	c45.19,0,88.568,9.821,128.929,29.192c2.95,1.416,5.15,3.894,6.195,6.977c1.037,3.06,0.803,6.332-0.66,9.213l-23.134,45.576
	c-1.322,2.605-3.959,4.107-6.693,4.107c-1.142,0-2.301-0.262-3.389-0.814c-3.693-1.874-5.168-6.389-3.293-10.082l21.708-42.768
	C338.134,112.381,297.892,103.5,256,103.5c-14.287,0-28.633,1.07-42.639,3.18C209.28,107.305,205.445,104.478,204.828,100.381z
	 M512,382.614c0,4.143-3.357,7.5-7.5,7.5H296.729C293.136,409.092,276.239,423.5,256,423.5s-37.136-14.408-40.729-33.386H7.5
	c-4.143,0-7.5-3.357-7.5-7.5s3.357-7.5,7.5-7.5h8.575c1.163-77.585,40.705-149.488,106.278-192.902
	c3.454-2.283,8.107-1.341,10.395,2.113c2.286,3.454,1.34,8.107-2.113,10.395c-61.364,40.627-98.394,107.857-99.558,180.395h75.814
	c0.519-22.195,5.943-43.424,16.146-63.155c10.234-19.797,25.181-37.351,43.221-50.767c3.324-2.471,8.021-1.78,10.494,1.543
	c2.472,3.324,1.78,8.022-1.543,10.494c-32.954,24.505-52.25,61.48-53.313,101.885h93.358c1.514-8.086,5.44-15.347,11.015-21.021
	c0.089-0.177,0.187-0.352,0.291-0.524l94.436-155.571c6.263-10.317,19.256-14.173,30.218-8.974
	c11.048,5.239,16.124,17.748,11.808,29.095L303.32,375.114h86.782c-0.876-32.844-13.976-63.863-37.112-87.688
	c-2.885-2.971-2.815-7.72,0.156-10.605c2.973-2.887,7.721-2.815,10.605,0.156c25.869,26.639,40.477,61.37,41.355,98.137h75.815
	c-1.168-73.05-38.604-140.548-100.646-181.111c-3.467-2.267-4.439-6.915-2.173-10.382s6.915-4.44,10.382-2.173
	c66.294,43.343,106.269,115.539,107.439,193.666h8.575C508.643,375.114,512,378.472,512,382.614z M282.435,382.572
	c0-14.296-11.858-25.927-26.435-25.927s-26.435,11.631-26.435,25.927c0,14.297,11.858,25.928,26.435,25.928
	S282.435,396.869,282.435,382.572z M349.002,212.786c1.508-3.966-0.305-8.354-4.216-10.21c-3.931-1.865-8.746-0.455-10.968,3.204
	l-82.641,136.141c1.582-0.182,3.192-0.275,4.822-0.275c15.455,0,28.96,8.4,36.082,20.822L349.002,212.786z M189.69,268.151
	c2.12,4.177,6.313,6.587,10.708,6.587c1.718,0,3.466-0.368,5.133-1.143c15.838-7.355,32.818-11.085,50.469-11.085
	c2.224,0,4.467,0.061,6.669,0.182c4.108,0.204,7.673-2.943,7.898-7.08c0.226-4.136-2.944-7.672-7.08-7.898
	c-2.474-0.135-4.992-0.203-7.487-0.203c-18.899,0-37.126,3.808-54.219,11.32l-65.443-128.929
	c15.472-7.218,31.674-13.044,48.205-17.333c4.009-1.04,6.416-5.134,5.376-9.144c-1.041-4.01-5.131-6.419-9.144-5.376
	c-18.458,4.789-36.526,11.397-53.704,19.643c-2.95,1.416-5.15,3.894-6.195,6.977c-1.037,3.06-0.803,6.332,0.66,9.213L189.69,268.151
	z"/>
<g>
</g>
<g>
</g>
<g>
</g>
<g>
</g>
<g>
</g>
<g>
</g>
<g>
</g>
<g>
</g>
<g>
</g>
<g>
</g>
<g>
</g>
<g>
</g>
<g>
</g>
<g>
</g>
<g>
</g>
</svg>
