<?xml version="1.0" ?><svg viewBox="0 0 64 64" xmlns="http://www.w3.org/2000/svg"><title/><g id="Computer"><path d="M54.5,45H9.5A6.51,6.51,0,0,1,3,38.5V9.5A6.51,6.51,0,0,1,9.5,3h45A6.51,6.51,0,0,1,61,9.5v29A6.51,6.51,0,0,1,54.5,45ZM9.5,5A4.51,4.51,0,0,0,5,9.5v29A4.51,4.51,0,0,0,9.5,43h45A4.51,4.51,0,0,0,59,38.5V9.5A4.51,4.51,0,0,0,54.5,5Z"/><path d="M46.45,41H17.55a9,9,0,0,1-9-9V16a9,9,0,0,1,9-8.95h28.9a9,9,0,0,1,8.95,9v16.1A9,9,0,0,1,46.45,41ZM17.55,9a7,7,0,0,0-7,7v16.1a7,7,0,0,0,7,7h28.9a7,7,0,0,0,6.95-7V16A7,7,0,0,0,46.45,9Z"/><path d="M52,61H12a1,1,0,0,1,0-2H52a1,1,0,0,1,0,2Z"/><path d="M12,61a1,1,0,0,1-.58-.19,1,1,0,0,1-.23-1.39l5.72-8a1,1,0,1,1,1.62,1.16l-5.72,8A1,1,0,0,1,12,61Z"/><path d="M52,61a1,1,0,0,1-.81-.42l-5.71-8a1,1,0,0,1,1.62-1.16l5.71,8a1,1,0,0,1-.23,1.39A1,1,0,0,1,52,61Z"/><path d="M36,41H28a1,1,0,0,1,0-2h8a1,1,0,0,1,0,2Z"/><path d="M40,57H24a1,1,0,0,1-.88-.53,1,1,0,0,1,.05-1L27,49.7V44a1,1,0,0,1,2,0v6a1,1,0,0,1-.17.55l-3,4.45H38.13l-3-4.45A1,1,0,0,1,35,50V44a1,1,0,0,1,2,0v5.7l3.83,5.75a1,1,0,0,1,.05,1A1,1,0,0,1,40,57Z"/><path d="M46.29,53h-9a1,1,0,0,1,0-2h9a1,1,0,0,1,0,2Z"/><path d="M26.67,53h-9a1,1,0,0,1,0-2h9a1,1,0,0,1,0,2Z"/></g></svg>